<svg width="22" height="22" viewBox="0 0 22 22" fill="none" xmlns="http://www.w3.org/2000/svg">
<path d="M11 22C4.9345 22 0 17.0655 0 11C0 4.9345 4.9345 0 11 0C17.0655 0 22 4.9345 22 11C22 17.0655 17.0655 22 11 22ZM11 1.57143C5.80078 1.57143 1.57143 5.80078 1.57143 11C1.57143 16.1992 5.80078 20.4286 11 20.4286C16.1992 20.4286 20.4286 16.1992 20.4286 11C20.4286 5.80078 16.1992 1.57143 11 1.57143Z" fill="#808080"/>
<path d="M14.1456 11.7857H11.7885V14.1428C11.7885 14.5771 11.4371 14.9286 11.0028 14.9286C10.5685 14.9286 10.2171 14.5771 10.2171 14.1428V11.7857H7.85993C7.42564 11.7857 7.07422 11.4343 7.07422 11C7.07422 10.5657 7.42564 10.2143 7.85993 10.2143H10.2171V7.85713C10.2171 7.42284 10.5685 7.07142 11.0028 7.07142C11.4371 7.07142 11.7885 7.42284 11.7885 7.85713V10.2143H14.1456C14.5799 10.2143 14.9314 10.5657 14.9314 11C14.9314 11.4343 14.5799 11.7857 14.1456 11.7857Z" fill="#808080"/>
</svg>
