<svg width="12" height="16" viewBox="0 0 12 16" fill="none" xmlns="http://www.w3.org/2000/svg">
<path d="M11.3684 1.89474H8.52632V1.57895C8.52632 0.708316 7.818 0 6.94737 0H5.05263C4.182 0 3.47368 0.708316 3.47368 1.57895V1.89474H0.631579C0.282947 1.89474 0 2.17768 0 2.52632V3.47368C0 3.82232 0.282947 4.10526 0.631579 4.10526H11.3684C11.7171 4.10526 12 3.82232 12 3.47368V2.52632C12 2.17768 11.7171 1.89474 11.3684 1.89474ZM4.73684 1.57895C4.73684 1.40495 4.87863 1.26316 5.05263 1.26316H6.94737C7.12137 1.26316 7.26316 1.40495 7.26316 1.57895V1.89474H4.73684V1.57895Z" fill="#BFBFBF"/>
<path d="M11.1416 4.94369C11.0219 4.81201 10.852 4.73685 10.6742 4.73685H1.32686C1.14908 4.73685 0.97918 4.81201 0.859496 4.94369C0.739812 5.07537 0.68139 5.25158 0.698127 5.42874L1.47434 13.5407C1.56244 14.4628 2.37371 15.1582 3.3615 15.1582H8.6396C9.62707 15.1582 10.4387 14.4628 10.5268 13.5407L11.303 5.42874C11.32 5.25158 11.2613 5.07537 11.1416 4.94369ZM4.52455 13.5777C4.51097 13.5783 4.49771 13.579 4.48413 13.579C4.1535 13.579 3.8756 13.3219 3.85444 12.9872L3.4755 6.98716C3.45371 6.63916 3.71802 6.33916 4.06602 6.31706C4.41497 6.29811 4.71434 6.55958 4.73613 6.90758L5.11507 12.9076C5.13686 13.2556 4.87255 13.5556 4.52455 13.5777ZM8.14665 12.9872C8.1255 13.3219 7.8476 13.579 7.51697 13.579C7.50371 13.579 7.49013 13.5786 7.47655 13.5777C7.12823 13.5556 6.86423 13.2556 6.88602 12.9076L7.26497 6.90758C7.28708 6.55927 7.5855 6.29748 7.93507 6.31706C8.28339 6.33916 8.54739 6.63916 8.5256 6.98716L8.14665 12.9872Z" fill="#BFBFBF"/>
</svg>
