<svg width="29" height="29" viewBox="0 0 29 29" fill="none" xmlns="http://www.w3.org/2000/svg">
<path d="M19.0215 10.4724L15.4273 14.0166L19.0215 17.5608C19.1215 17.6545 19.2013 17.7676 19.2558 17.8934C19.3103 18.0191 19.3384 18.1546 19.3384 18.2917C19.3384 18.4287 19.3103 18.5643 19.2558 18.69C19.2013 18.8157 19.1215 18.9289 19.0215 19.0225C18.928 19.1153 18.817 19.1887 18.695 19.2386C18.5731 19.2884 18.4424 19.3136 18.3107 19.3129C18.048 19.3118 17.7963 19.2075 17.6098 19.0225L14.0156 15.4283L10.4714 19.0225C10.2849 19.2075 10.0332 19.3118 9.77056 19.3129C9.6388 19.3136 9.50818 19.2884 9.3862 19.2386C9.26422 19.1887 9.15327 19.1153 9.05972 19.0225C8.87325 18.835 8.76858 18.5812 8.76858 18.3167C8.76858 18.0522 8.87325 17.7985 9.05972 17.6109L12.6039 14.0166L9.05972 10.4724C8.8957 10.2809 8.80999 10.0345 8.81973 9.78254C8.82946 9.53057 8.93392 9.29154 9.11222 9.11324C9.29053 8.93493 9.52955 8.83048 9.78152 8.82074C10.0335 8.81101 10.2799 8.89672 10.4714 9.06074L14.0156 12.6049L17.5598 9.06074C17.6525 8.96476 17.7632 8.88798 17.8855 8.83478C18.0079 8.78158 18.1395 8.753 18.273 8.75067C18.4064 8.74835 18.5389 8.77232 18.6631 8.82123C18.7872 8.87014 18.9005 8.94302 18.9965 9.03571C19.0925 9.1284 19.1693 9.23909 19.2225 9.36145C19.2757 9.48382 19.3042 9.61547 19.3066 9.74888C19.3089 9.88229 19.2849 10.0148 19.236 10.139C19.1871 10.2631 19.1142 10.3764 19.0215 10.4724ZM23.9273 23.9283C21.967 25.8885 19.4695 27.2233 16.7506 27.764C14.0317 28.3047 11.2135 28.0271 8.65235 26.9661C6.09123 25.9052 3.90222 24.1087 2.36212 21.8037C0.822023 19.4987 0 16.7888 0 14.0166C0 11.2444 0.822023 8.53454 2.36212 6.22955C3.90222 3.92456 6.09123 2.12802 8.65235 1.06709C11.2135 0.00616804 14.0317 -0.271491 16.7506 0.269227C19.4695 0.809945 21.967 2.14475 23.9273 4.10487C25.229 5.40645 26.2616 6.95169 26.9661 8.65236C27.6706 10.353 28.0332 12.1758 28.0332 14.0166C28.0332 15.8574 27.6706 17.6802 26.9661 19.3809C26.2616 21.0815 25.229 22.6268 23.9273 23.9283ZM22.5157 5.51654C20.8338 3.84049 18.693 2.70039 16.3636 2.2402C14.0342 1.78001 11.6207 2.02036 9.4278 2.93091C7.23491 3.84147 5.36101 5.38138 4.04271 7.35621C2.72442 9.33103 2.02085 11.6522 2.02085 14.0266C2.02085 16.401 2.72442 18.7222 4.04271 20.697C5.36101 22.6719 7.23491 24.2118 9.4278 25.1223C11.6207 26.0329 14.0342 26.2732 16.3636 25.813C18.693 25.3528 20.8338 24.2127 22.5157 22.5367C23.6357 21.4205 24.5244 20.0943 25.1308 18.6339C25.7372 17.1736 26.0493 15.6079 26.0493 14.0266C26.0493 12.4454 25.7372 10.8797 25.1308 9.41934C24.5244 7.95899 23.6357 6.6327 22.5157 5.51654Z" fill="black"/>
</svg>
