<svg width="25" height="22" viewBox="0 0 25 22" fill="none" xmlns="http://www.w3.org/2000/svg">
<path d="M10.2539 21.9726C11.4674 21.9726 12.4512 20.9888 12.4512 19.7753C12.4512 18.5618 11.4674 17.5781 10.2539 17.5781C9.04039 17.5781 8.05664 18.5618 8.05664 19.7753C8.05664 20.9888 9.04039 21.9726 10.2539 21.9726Z" fill="black"/>
<path d="M17.627 21.9727C18.8405 21.9727 19.8242 20.9889 19.8242 19.7754C19.8242 18.5619 18.8405 17.5781 17.627 17.5781C16.4134 17.5781 15.4297 18.5619 15.4297 19.7754C15.4297 20.9889 16.4134 21.9727 17.627 21.9727Z" fill="black"/>
<path d="M0.732417 1.46488H3.78674L7.32275 13.8434L7.04541 14.398C6.31514 15.857 7.37524 17.5781 9.01093 17.5781H21.3377C21.7426 17.5781 22.0702 17.2505 22.0702 16.8456C22.0702 16.4408 21.7426 16.1132 21.3377 16.1132H9.01093C8.46703 16.1132 8.11157 15.5405 8.35575 15.0532L8.5582 14.6484H21.3377C21.6646 14.6484 21.9521 14.4317 22.0423 14.1169L24.972 3.86311C25.0349 3.64211 24.9906 3.40462 24.8525 3.22083C24.7138 3.03772 24.4971 2.92972 24.2675 2.92972H5.72862L5.04342 0.531442C4.95329 0.216747 4.66579 0 4.33889 0H0.732417C0.327586 0 0 0.327586 0 0.732417C0 1.13725 0.327586 1.46488 0.732417 1.46488Z" fill="black"/>
</svg>
