<svg width="22" height="22" viewBox="0 0 22 22" fill="none" xmlns="http://www.w3.org/2000/svg">
<mask id="mask0_1216_540" style="mask-type:luminance" maskUnits="userSpaceOnUse" x="0" y="0" width="22" height="22">
<path d="M0 0H22V22H0V0Z" fill="white"/>
</mask>
<g mask="url(#mask0_1216_540)">
<path d="M13.0711 2.97692C13.8308 3.17298 14.5485 3.47398 15.2075 3.86371C15.2075 3.86371 15.525 3.54612 15.8816 3.18953C16.1405 2.93034 16.4918 2.78497 16.8581 2.78497C17.2239 2.78497 17.5754 2.93034 17.8343 3.18953C18.1484 3.50367 18.4963 3.85159 18.8104 4.16573C19.0697 4.42462 19.215 4.77602 19.215 5.1419C19.215 5.50816 19.0697 5.85952 18.8104 6.1184C18.4538 6.475 18.1363 6.79254 18.1363 6.79254C18.526 7.45151 18.827 8.16913 19.0231 8.9289H19.9747C20.7372 8.9289 21.3555 9.54714 21.3555 10.3096V11.6904C21.3555 12.4529 20.7372 13.0711 19.9747 13.0711H19.0231C18.827 13.8308 18.526 14.5485 18.1363 15.2074C18.1363 15.2074 18.4538 15.525 18.8104 15.8816C19.0697 16.1405 19.215 16.4918 19.215 16.8581C19.215 17.224 19.0697 17.5754 18.8104 17.8343C18.4963 18.1484 18.1484 18.4963 17.8343 18.8104C17.5754 19.0697 17.2239 19.215 16.8581 19.215C16.4918 19.215 16.1405 19.0697 15.8816 18.8104C15.525 18.4538 15.2075 18.1363 15.2075 18.1363C14.5485 18.526 13.8308 18.827 13.0711 19.023V19.9747C13.0711 20.7372 12.4529 21.3555 11.6903 21.3555H10.3096C9.5471 21.3555 8.92891 20.7372 8.92891 19.9747V19.023C8.16918 18.827 7.45151 18.526 6.79254 18.1363C6.79254 18.1363 6.475 18.4538 6.11841 18.8104C5.85952 19.0697 5.50812 19.215 5.1419 19.215C4.77602 19.215 4.42458 19.0697 4.16574 18.8104C3.85163 18.4963 3.50367 18.1484 3.18953 17.8343C2.93034 17.5754 2.78498 17.224 2.78498 16.8581C2.78498 16.4918 2.93034 16.1405 3.18953 15.8816C3.54613 15.525 3.86371 15.2074 3.86371 15.2074C3.47398 14.5485 3.17303 13.8308 2.97692 13.0711H2.02529C1.26277 13.0711 0.644531 12.4529 0.644531 11.6904V10.3096C0.644531 9.54714 1.26277 8.9289 2.02529 8.9289H2.97692C3.17303 8.16913 3.47398 7.45151 3.86371 6.79254C3.86371 6.79254 3.54613 6.475 3.18953 6.1184C2.93034 5.85952 2.78498 5.50816 2.78498 5.1419C2.78498 4.77602 2.93034 4.42462 3.18953 4.16573C3.50367 3.85159 3.85163 3.50367 4.16574 3.18953C4.42458 2.93034 4.77602 2.78497 5.1419 2.78497C5.50812 2.78497 5.85952 2.93034 6.11841 3.18953C6.475 3.54612 6.79254 3.86371 6.79254 3.86371C7.45151 3.47398 8.16918 3.17298 8.92891 2.97692V2.02524C8.92891 1.26272 9.5471 0.644529 10.3096 0.644529H11.6903C12.4529 0.644529 13.0711 1.26272 13.0711 2.02524V2.97692Z" stroke="#808080" stroke-width="1.28906" stroke-miterlimit="10" stroke-linecap="round" stroke-linejoin="round"/>
<path d="M11.0016 6.85782C13.2877 6.85782 15.1437 8.71386 15.1437 11C15.1437 13.2861 13.2877 15.1422 11.0016 15.1422C8.71541 15.1422 6.85938 13.2861 6.85938 11C6.85938 8.71386 8.71541 6.85782 11.0016 6.85782Z" stroke="#808080" stroke-width="1.28906" stroke-miterlimit="10" stroke-linecap="round" stroke-linejoin="round"/>
</g>
</svg>
