<svg width="23" height="22" viewBox="0 0 23 22" fill="none" xmlns="http://www.w3.org/2000/svg">
<path d="M11.5 22C5.4345 22 0.5 17.0655 0.5 11C0.5 4.9345 5.4345 0 11.5 0C17.5655 0 22.5 4.9345 22.5 11C22.5 17.0655 17.5655 22 11.5 22ZM11.5 1.57143C6.30078 1.57143 2.07143 5.80078 2.07143 11C2.07143 16.1992 6.30078 20.4286 11.5 20.4286C16.6992 20.4286 20.9286 16.1992 20.9286 11C20.9286 5.80078 16.6992 1.57143 11.5 1.57143Z" fill="white"/>
<path d="M14.6456 11.7857H12.2885V14.1428C12.2885 14.5771 11.9371 14.9286 11.5028 14.9286C11.0685 14.9286 10.7171 14.5771 10.7171 14.1428V11.7857H8.35993C7.92564 11.7857 7.57422 11.4343 7.57422 11C7.57422 10.5657 7.92564 10.2143 8.35993 10.2143H10.7171V7.85713C10.7171 7.42284 11.0685 7.07142 11.5028 7.07142C11.9371 7.07142 12.2885 7.42284 12.2885 7.85713V10.2143H14.6456C15.0799 10.2143 15.4314 10.5657 15.4314 11C15.4314 11.4343 15.0799 11.7857 14.6456 11.7857Z" fill="white"/>
</svg>
