<svg width="56" height="56" viewBox="0 0 56 56" fill="none" xmlns="http://www.w3.org/2000/svg">
<path d="M39.0623 19.8123L31.039 27.8359L39.0623 35.8596C39.9167 36.7137 39.9167 38.0988 39.0623 38.9529C38.6354 39.3801 38.0753 39.5938 37.5156 39.5938C36.9559 39.5938 36.3958 39.3801 35.969 38.9529L27.9453 30.9296L19.9216 38.9529C19.4948 39.3801 18.9347 39.5938 18.375 39.5938C17.8153 39.5938 17.2552 39.3801 16.8284 38.9529C15.9739 38.0988 15.9739 36.7137 16.8284 35.8596L24.8516 27.8359L16.8284 19.8123C15.9739 18.9582 15.9739 17.5731 16.8284 16.719C17.6824 15.8645 19.0676 15.8645 19.9216 16.719L27.9453 24.7422L35.969 16.719C36.8231 15.8645 38.2082 15.8645 39.0623 16.719C39.9167 17.5731 39.9167 18.9582 39.0623 19.8123ZM47.799 8.20099C42.5106 2.91254 35.4789 0 28 0C20.5211 0 13.4894 2.91254 8.20099 8.20099C2.91254 13.4894 0 20.5211 0 28C0 35.4789 2.91254 42.5106 8.20099 47.799C13.4894 53.0875 20.5211 56 28 56C33.1201 56 38.13 54.6046 42.4879 51.9647C43.5214 51.3387 43.8517 49.9938 43.2258 48.9607C42.5999 47.9272 41.2545 47.5969 40.2214 48.2228C36.5471 50.4484 32.3207 51.625 28 51.625C14.9733 51.625 4.375 41.0267 4.375 28C4.375 14.9733 14.9733 4.375 28 4.375C41.0267 4.375 51.625 14.9733 51.625 28C51.625 32.6583 50.2399 37.1922 47.6191 41.1126C46.9475 42.1166 47.2175 43.4753 48.222 44.1469C49.226 44.8181 50.5847 44.5485 51.2563 43.5441C54.3594 38.902 56 33.5269 56 28C56 20.5211 53.0875 13.4894 47.799 8.20099Z" fill="#FF0000"/>
</svg>
