<svg width="22" height="22" viewBox="0 0 22 22" fill="none" xmlns="http://www.w3.org/2000/svg">
<path fill-rule="evenodd" clip-rule="evenodd" d="M1 0C0.447715 0 0 0.447716 0 1V8.77778C0 9.33006 0.447716 9.77778 1 9.77778H8.77778C9.33006 9.77778 9.77778 9.33006 9.77778 8.77778V1C9.77778 0.447715 9.33006 0 8.77778 0H1ZM13.2218 0C12.6695 0 12.2218 0.447716 12.2218 1V8.77778C12.2218 9.33006 12.6695 9.77778 13.2218 9.77778H20.9996C21.5519 9.77778 21.9996 9.33006 21.9996 8.77778V1C21.9996 0.447715 21.5518 0 20.9996 0H13.2218ZM12.2218 13.2222C12.2218 12.6699 12.6695 12.2222 13.2218 12.2222H20.9996C21.5518 12.2222 21.9996 12.6699 21.9996 13.2222V21C21.9996 21.5523 21.5519 22 20.9996 22H13.2218C12.6695 22 12.2218 21.5523 12.2218 21V13.2222ZM1 12.2222C0.447715 12.2222 0 12.6699 0 13.2222V21C0 21.5523 0.447716 22 1 22H8.77778C9.33006 22 9.77778 21.5523 9.77778 21V13.2222C9.77778 12.6699 9.33006 12.2222 8.77778 12.2222H1Z" fill="white"/>
</svg>
