<svg width="22" height="22" viewBox="0 0 22 22" fill="none" xmlns="http://www.w3.org/2000/svg">
<path fill-rule="evenodd" clip-rule="evenodd" d="M0 1C0 0.447716 0.447715 0 1 0H8.77778C9.33006 0 9.77778 0.447715 9.77778 1V8.77778C9.77778 9.33006 9.33006 9.77778 8.77778 9.77778H1C0.447716 9.77778 0 9.33006 0 8.77778V1ZM1.22222 2.22222C1.22222 1.66994 1.66994 1.22222 2.22222 1.22222H7.55555C8.10784 1.22222 8.55556 1.66994 8.55556 2.22222V7.55555C8.55556 8.10784 8.10784 8.55556 7.55556 8.55556H2.22222C1.66994 8.55556 1.22222 8.10784 1.22222 7.55556V2.22222ZM12.2218 1C12.2218 0.447716 12.6695 0 13.2218 0H20.9996C21.5518 0 21.9996 0.447715 21.9996 1V8.77778C21.9996 9.33006 21.5518 9.77778 20.9996 9.77778H13.2218C12.6695 9.77778 12.2218 9.33006 12.2218 8.77778V1ZM13.444 2.22222C13.444 1.66994 13.8917 1.22222 14.444 1.22222H19.7773C20.3296 1.22222 20.7773 1.66994 20.7773 2.22222V7.55555C20.7773 8.10784 20.3296 8.55556 19.7773 8.55556H14.444C13.8917 8.55556 13.444 8.10784 13.444 7.55556V2.22222ZM13.2218 12.2222C12.6695 12.2222 12.2218 12.6699 12.2218 13.2222V21C12.2218 21.5523 12.6695 22 13.2218 22H20.9996C21.5518 22 21.9996 21.5523 21.9996 21V13.2222C21.9996 12.6699 21.5518 12.2222 20.9996 12.2222H13.2218ZM14.444 13.4444C13.8917 13.4444 13.444 13.8922 13.444 14.4444V19.7778C13.444 20.3301 13.8917 20.7778 14.444 20.7778H19.7773C20.3296 20.7778 20.7773 20.3301 20.7773 19.7778V14.4444C20.7773 13.8922 20.3296 13.4444 19.7773 13.4444H14.444ZM0 13.2222C0 12.6699 0.447715 12.2222 1 12.2222H8.77778C9.33006 12.2222 9.77778 12.6699 9.77778 13.2222V21C9.77778 21.5523 9.33006 22 8.77778 22H1C0.447716 22 0 21.5523 0 21V13.2222ZM1.22222 14.4444C1.22222 13.8922 1.66994 13.4444 2.22222 13.4444H7.55555C8.10784 13.4444 8.55556 13.8922 8.55556 14.4444V19.7778C8.55556 20.3301 8.10784 20.7778 7.55556 20.7778H2.22222C1.66994 20.7778 1.22222 20.3301 1.22222 19.7778V14.4444Z" fill="#808080"/>
</svg>
