<svg width="87" height="88" viewBox="0 0 87 88" fill="none" xmlns="http://www.w3.org/2000/svg">
<path d="M86.7381 53.0887C86.2071 51.8067 84.9673 50.9783 83.5797 50.9783L73.1481 50.9801C73.1481 50.98 73.148 50.9795 73.148 50.9783V4.10227C73.148 1.84031 71.3077 0 69.0458 0H39.2206C36.9587 0 35.1184 1.84031 35.1184 4.10227V15.698C33.0331 15.213 30.8612 14.9562 28.6304 14.9562C12.8436 14.9562 0 27.7998 0 43.5867C0 59.3735 12.8436 72.2171 28.6304 72.2171C31.379 72.2171 34.0378 71.8268 36.5557 71.1004L51.7159 86.2607C52.3616 86.9064 53.2201 87.2619 54.1332 87.2619C55.0464 87.2619 55.9049 86.9064 56.5505 86.2607L85.997 56.8142C86.9782 55.833 87.2691 54.3706 86.7381 53.0887ZM2.73485 43.5867C2.73485 29.3078 14.3515 17.6911 28.6304 17.6911C42.9094 17.6911 54.526 29.3078 54.526 43.5867C54.526 57.8655 42.9094 69.4823 28.6304 69.4823C14.3515 69.4823 2.73485 57.8655 2.73485 43.5867ZM84.0632 54.8803L54.6166 84.327C54.4424 84.5011 54.239 84.5271 54.1332 84.5271C54.0275 84.5271 53.824 84.5011 53.6497 84.3268L39.4252 70.1023C49.8767 65.8318 57.2609 55.5561 57.2609 43.5867C57.2609 31.0252 49.129 20.3277 37.8532 16.4806V4.10227C37.8532 3.34829 38.4667 2.73485 39.2206 2.73485H69.0458C69.7997 2.73485 70.4132 3.34829 70.4132 4.10227V50.9783C70.4132 52.4863 71.6401 53.7131 73.148 53.7131H83.5797C83.992 53.7131 84.1589 54.0083 84.2114 54.1353C84.2639 54.2621 84.3547 54.5888 84.0632 54.8803Z" fill="#BB6CFB"/>
<path d="M27.4056 35.1671H29.8572C31.4537 35.1671 32.7525 36.4659 32.7525 38.0625C32.7525 38.8177 33.3647 39.43 34.1199 39.43C34.8752 39.43 35.4874 38.8177 35.4874 38.0625C35.4874 35.0054 33.0379 32.5115 29.9988 32.4358V31.1261C29.9988 30.3709 29.3866 29.7587 28.6314 29.7587C27.8761 29.7587 27.264 30.3709 27.264 31.1261V32.4358C24.2248 32.5115 21.7754 35.0054 21.7754 38.0625V39.3238C21.7754 42.4284 24.3011 44.9541 27.4056 44.9541H29.8572C31.4537 44.9541 32.7525 46.2529 32.7525 47.8495V49.1108C32.7525 50.7074 31.4537 52.0062 29.8572 52.0062H27.4056C25.8091 52.0062 24.5102 50.7074 24.5102 49.1108V48.9929C24.5102 48.2378 23.8981 47.6255 23.1428 47.6255C22.3876 47.6255 21.7754 48.2378 21.7754 48.9929V49.1108C21.7754 52.1679 24.2248 54.6618 27.264 54.7374V56.0472C27.264 56.8024 27.8761 57.4146 28.6314 57.4146C29.3866 57.4146 29.9988 56.8024 29.9988 56.0472V54.7374C33.0379 54.6618 35.4874 52.1679 35.4874 49.1108V47.8495C35.4874 44.7449 32.9617 42.2192 29.8572 42.2192H27.4056C25.8091 42.2192 24.5102 40.9204 24.5102 39.3238V38.0625C24.5102 36.4659 25.8091 35.1671 27.4056 35.1671Z" fill="#BB6CFB"/>
<path d="M28.6295 22.1544C16.8117 22.1544 7.19727 31.7689 7.19727 43.5866C7.19727 55.4044 16.8117 65.0189 28.6295 65.0189C40.4474 65.0189 50.0618 55.4044 50.0618 43.5866C50.0618 31.7689 40.4474 22.1544 28.6295 22.1544ZM28.6295 62.2841C18.3198 62.2841 9.93211 53.8964 9.93211 43.5866C9.93211 33.2769 18.3198 24.8892 28.6295 24.8892C38.9393 24.8892 47.327 33.2769 47.327 43.5866C47.327 53.8964 38.9393 62.2841 28.6295 62.2841Z" fill="#BB6CFB"/>
</svg>
