<svg width="13" height="12" viewBox="0 0 13 12" fill="none" xmlns="http://www.w3.org/2000/svg">
<path d="M7.41104 2.00362L0.808122 8.60701C0.774902 8.64033 0.750916 8.6824 0.739494 8.72761L0.00762319 11.6652C-0.0142692 11.7536 0.0117161 11.8477 0.0762509 11.9122C0.12508 11.961 0.191614 11.988 0.259671 11.988C0.280516 11.988 0.301837 11.9855 0.322587 11.9802L3.26016 11.2483C3.30594 11.2369 3.34754 11.213 3.38076 11.1797L9.98425 4.57682L7.41104 2.00362Z" fill="#BFBFBF"/>
<path d="M11.6219 1.10327L10.8869 0.368255C10.3956 -0.12299 9.53946 -0.122514 9.04878 0.368255L8.14844 1.2686L10.7215 3.84171L11.6219 2.94137C11.8673 2.69608 12.0024 2.3696 12.0024 2.02236C12.0024 1.67513 11.8673 1.34865 11.6219 1.10327Z" fill="#BFBFBF"/>
</svg>
