<svg width="20" height="15" viewBox="0 0 20 15" fill="none" xmlns="http://www.w3.org/2000/svg">
<path fill-rule="evenodd" clip-rule="evenodd" d="M13.5714 0C11.852 0 10.406 1.23244 10.0725 2.85714H0.714286C0.3198 2.85714 0 3.17694 0 3.57143C0 3.96591 0.3198 4.28571 0.714286 4.28571H10.0725C10.406 5.91042 11.852 7.14286 13.5714 7.14286C15.2909 7.14286 16.7368 5.91042 17.0703 4.28571H19.2857C19.6802 4.28571 20 3.96591 20 3.57143C20 3.17694 19.6802 2.85714 19.2857 2.85714H17.0703C16.7368 1.23244 15.2909 0 13.5714 0ZM13.5714 1.42857C14.7633 1.42857 15.7143 2.37952 15.7143 3.57143C15.7143 4.76334 14.7633 5.71429 13.5714 5.71429C12.3795 5.71429 11.4286 4.76334 11.4286 3.57143C11.4286 2.37952 12.3795 1.42857 13.5714 1.42857Z" fill="#808080"/>
<path fill-rule="evenodd" clip-rule="evenodd" d="M6.42857 7.14285C4.70915 7.14285 3.26318 8.37529 2.92969 10H0.714286C0.3198 10 0 10.3198 0 10.7143C0 11.1088 0.3198 11.4286 0.714286 11.4286H2.92969C3.26318 13.0533 4.70915 14.2857 6.42857 14.2857C8.14799 14.2857 9.59396 13.0533 9.92746 11.4286H19.2857C19.6802 11.4286 20 11.1088 20 10.7143C20 10.3198 19.6802 10 19.2857 10H9.92746C9.59396 8.37529 8.14799 7.14285 6.42857 7.14285ZM6.42857 8.57142C7.62048 8.57142 8.57143 9.52237 8.57143 10.7143C8.57143 11.9062 7.62048 12.8571 6.42857 12.8571C5.23666 12.8571 4.28571 11.9062 4.28571 10.7143C4.28571 9.52237 5.23666 8.57142 6.42857 8.57142Z" fill="#808080"/>
</svg>
