<svg width="36" height="26" viewBox="0 0 36 26" fill="none" xmlns="http://www.w3.org/2000/svg">
<path d="M22.0251 14.3788L26.0776 18.4313C26.7083 19.062 26.7083 20.0846 26.0776 20.7153C25.4468 21.346 24.4243 21.346 23.7936 20.7153L20.5605 17.4823" stroke="black" stroke-width="1.3821" stroke-miterlimit="10" stroke-linecap="round" stroke-linejoin="round"/>
<path d="M20.5619 17.4822L23.4451 20.3654C24.0758 20.9962 24.0758 22.0187 23.4451 22.6494C22.8143 23.2802 21.7918 23.2802 21.1611 22.6494L19.084 20.5723" stroke="black" stroke-width="1.3821" stroke-miterlimit="10" stroke-linecap="round" stroke-linejoin="round"/>
<path d="M19.0841 20.5723L20.3506 21.8388C20.9813 22.4695 20.9813 23.4921 20.3506 24.1228C19.7198 24.7535 18.6973 24.7535 18.0666 24.1228L17.4746 23.5309" stroke="black" stroke-width="1.3821" stroke-miterlimit="10" stroke-linecap="round" stroke-linejoin="round"/>
<path d="M27.8743 5.42891L27.5317 5.59995C26.2978 6.2156 24.8646 6.29494 23.5704 5.81908C21.7398 5.14606 19.7071 5.30183 18.0005 6.24587L14.9925 7.90986C14.0094 8.45364 13.7102 9.72704 14.3483 10.6517C14.8401 11.3646 15.7518 11.6547 16.5651 11.3571L20.3534 9.97112C21.172 9.67162 22.0902 9.87431 22.7067 10.4908L28.3631 16.1473C28.9938 16.778 28.9938 17.8005 28.3631 18.4313C27.7324 19.062 26.7099 19.062 26.0791 18.4313L21.6122 13.9643" stroke="black" stroke-width="1.3821" stroke-miterlimit="10" stroke-linecap="round" stroke-linejoin="round"/>
<path d="M17.9994 6.24592C16.2927 5.30181 14.26 5.14605 12.4295 5.81913C11.1353 6.29499 9.70211 6.21566 8.46823 5.6L8.13867 5.43553" stroke="black" stroke-width="1.3821" stroke-miterlimit="10" stroke-linecap="round" stroke-linejoin="round"/>
<path d="M28.4453 16.0832L31.379 14.5219" stroke="black" stroke-width="1.3821" stroke-miterlimit="10" stroke-linecap="round" stroke-linejoin="round"/>
<path d="M7.22858 15.8241L4.78516 13.889" stroke="black" stroke-width="1.3821" stroke-miterlimit="10" stroke-linecap="round" stroke-linejoin="round"/>
<path d="M14.0328 17.7774L12.3391 19.4711C11.7083 20.1019 10.6858 20.1019 10.0551 19.4711C9.42435 18.8404 9.42435 17.8179 10.0551 17.1871L11.7488 15.4934C12.3796 14.8626 13.4021 14.8626 14.0328 15.4934C14.6636 16.1241 14.6636 17.1466 14.0328 17.7774Z" stroke="black" stroke-width="1.3821" stroke-miterlimit="10" stroke-linecap="round" stroke-linejoin="round"/>
<path d="M16.318 20.0614L14.6242 21.7552C13.9935 22.3859 12.971 22.3859 12.3402 21.7552C11.7095 21.1245 11.7095 20.1019 12.3402 19.4712L14.034 17.7774C14.6647 17.1467 15.6873 17.1467 16.318 17.7774C16.9487 18.4081 16.9487 19.4307 16.318 20.0614Z" stroke="black" stroke-width="1.3821" stroke-miterlimit="10" stroke-linecap="round" stroke-linejoin="round"/>
<path d="M17.8851 23.0624L17.2883 23.6593C16.6576 24.29 15.635 24.29 15.0043 23.6593C14.3736 23.0285 14.3736 22.006 15.0043 21.3753L15.6012 20.7784C16.2319 20.1477 17.2544 20.1477 17.8851 20.7784C18.5159 21.4091 18.5159 22.4317 17.8851 23.0624Z" stroke="black" stroke-width="1.3821" stroke-miterlimit="10" stroke-linecap="round" stroke-linejoin="round"/>
<path d="M8.52379 14.1493L7.76992 14.9032C7.13919 15.5339 7.13919 16.5565 7.76992 17.1872C8.40064 17.8179 9.42319 17.8179 10.0539 17.1872L10.8078 16.4333C11.4385 15.8026 11.4385 14.78 10.8078 14.1493C10.1771 13.5187 9.15451 13.5187 8.52379 14.1493Z" stroke="black" stroke-width="1.3821" stroke-miterlimit="10" stroke-linecap="round" stroke-linejoin="round"/>
<path d="M35.0007 14.4772L31.981 15.5634L27.3047 3.93179L32.7891 0.999939L35.0007 14.4772Z" stroke="black" stroke-width="1.3821" stroke-miterlimit="10" stroke-linecap="round" stroke-linejoin="round"/>
<path d="M1 14.4772L4.01976 15.5635L8.69603 3.93185L3.21164 1L1 14.4772Z" stroke="black" stroke-width="1.3821" stroke-miterlimit="10" stroke-linecap="round" stroke-linejoin="round"/>
</svg>
