<svg width="22" height="21" viewBox="0 0 22 21" fill="none" xmlns="http://www.w3.org/2000/svg">
<path fill-rule="evenodd" clip-rule="evenodd" d="M1.52032 8.59335C2.35903 3.6319 6.65605 0 11.688 0C17.3833 0 22 4.61669 22 10.312C22 16.0074 17.3833 20.624 11.688 20.624C8.47818 20.6766 5.44508 19.157 3.56554 16.5542C3.3452 16.2449 3.41773 15.8156 3.72709 15.5952C4.03645 15.3749 4.46578 15.4474 4.68611 15.7568C6.30922 17.9952 8.92367 19.2993 11.688 19.2491C16.0709 19.2498 19.8077 16.0716 20.5106 11.7454C21.3022 6.87331 17.9941 2.28239 13.1224 1.49077C8.25063 0.699155 3.65938 4.00657 2.86776 8.87865L3.29399 8.44899C3.56244 8.18053 3.9983 8.18053 4.26675 8.44899C4.53521 8.71744 4.53521 9.1533 4.26675 9.42175L2.54808 11.1404C2.41987 11.2697 2.2456 11.3425 2.06342 11.3432H1.99467C1.79015 11.3216 1.60591 11.2092 1.49282 11.0373L0.117883 8.9749C-0.094888 8.65969 -0.0117043 8.23209 0.3035 8.01932C0.618704 7.80655 1.04631 7.88973 1.25908 8.20493L1.52032 8.59335ZM15.0246 14.3028L10.8998 11.2092C10.7513 11.0896 10.6558 10.884 10.6558 10.6558V4.46854C10.6558 4.08872 10.9634 3.78108 11.3432 3.78108C11.7231 3.78108 12.0307 4.08872 12.0307 4.46854V10.312L15.8496 13.2028C16.1534 13.4307 16.215 13.8614 15.9871 14.1653C15.7592 14.4691 15.3285 14.5307 15.0246 14.3028Z" fill="#808080"/>
</svg>
