<svg width="125" height="54" viewBox="0 0 125 54" fill="none" xmlns="http://www.w3.org/2000/svg">
<path d="M34.3 13.4392V36.0211C34.3 36.2327 34.3959 36.4124 34.5183 36.431C35.2129 36.5297 35.9845 36.5297 36.7953 36.431C37.4569 36.3432 38.2642 36.1812 39.2611 35.934C39.2248 36.2791 39.2068 36.6519 39.2068 37.0545C39.2068 37.3971 39.2274 37.8136 39.2661 38.2646H31.4209V13.4437C31.5704 13.4661 31.7632 13.5067 32.0016 13.5623C32.3498 13.6646 32.707 13.6671 32.92 13.5696L33.6257 13.5643C33.8942 13.5015 34.1164 13.4578 34.3 13.4392ZM43.704 14.6741C43.2855 14.7742 43.0067 14.7761 42.8057 14.6794H42.1C41.8506 14.6211 41.6602 14.5838 41.5168 14.56V38.2644H44.248V14.5547C44.0908 14.5754 43.9119 14.6143 43.704 14.6741ZM46.4091 14.5374C46.4355 14.8738 46.4487 15.2101 46.4487 15.539C46.4487 15.9716 46.4362 16.3535 46.413 16.6798H46.8691C48.1615 16.3999 49.2467 16.2567 50.0788 16.2567C50.212 16.2567 50.3192 16.4405 50.3192 16.6665V38.2646H52.9687V16.6665C52.9687 16.4404 53.0763 16.2567 53.2087 16.2567C53.8142 16.2567 54.6807 16.3522 55.7857 16.5392C56.0653 16.6083 56.3618 16.652 56.6711 16.672C56.6398 16.3444 56.6398 15.9689 56.6723 15.549C56.6382 15.2141 56.6398 14.8739 56.6785 14.5376H46.4091V14.5374ZM58.852 14.5374V38.2646H66.3344C66.298 37.8372 66.2786 37.4465 66.2786 37.1237C66.2786 36.7543 66.2953 36.4085 66.3254 36.0918C65.8161 36.2245 65.2488 36.3305 64.6402 36.4019C63.9324 36.4995 62.9575 36.5468 61.7408 36.5468C61.6086 36.5468 61.5015 36.3623 61.5015 36.1346V26.9644C61.5015 26.7389 61.6086 26.5545 61.7408 26.5545H63.7431C64.4103 26.6213 64.9464 26.6885 65.4835 26.7547L65.8799 26.8019C65.8683 26.7112 65.8553 26.6088 65.8408 26.5003L65.8335 24.85C65.8335 24.8036 65.8374 24.7584 65.8467 24.7186C65.8518 24.6869 65.8576 24.6537 65.8634 24.6232C65.1582 24.7731 64.5136 24.8361 63.7432 24.8361H61.7409C61.6087 24.8361 61.5016 24.6515 61.5016 24.4254V16.6665C61.5016 16.4404 61.6087 16.2567 61.7409 16.2567C63.2178 16.2567 64.7687 16.4213 66.3535 16.7475C66.3036 16.3733 66.2786 16.0139 66.2786 15.6796C66.2786 15.2819 66.3035 14.8984 66.3543 14.5374H58.852ZM77.5991 30.9745C77.5417 28.0423 76.2266 25.4403 73.6825 23.2602C71.7969 21.5961 70.8819 19.979 70.8819 18.3221C70.8819 15.6498 71.7955 14.1826 73.5245 14.0759C74.7011 14.0759 75.6062 15.1557 76.2192 17.2901C76.2833 16.9147 76.3729 16.4347 76.489 15.831C76.6307 15.1916 76.7507 14.6552 76.8512 14.2121C75.947 13.2895 74.8568 12.7747 73.6093 12.6845C70.4706 12.969 68.8874 15.4459 68.7787 20.2551C68.7787 23.4952 69.9773 26.0973 72.342 27.9803C74.319 29.5191 75.3203 31.2829 75.3203 33.2166C75.1949 35.9342 74.2494 37.3577 72.5079 37.4647C70.785 37.3621 69.707 35.9727 69.2979 33.334H69.2673C69.1569 34.7678 68.9814 36.1838 68.7456 37.5458C69.7938 38.2255 70.882 38.6168 71.9825 38.7078C75.4584 38.7071 77.3774 35.8862 77.5991 30.9745ZM82.1752 27.5596C82.1337 27.5644 82.0733 27.5826 82.023 27.6675C81.9792 27.7425 81.9537 27.8444 81.9537 27.9491V38.2644H79.204V14.5335H84.1575C86.9936 14.5335 88.399 16.3906 88.4513 20.2064C88.4718 22.283 88.1384 23.9358 87.4616 25.1166C86.5298 26.743 84.8989 27.5674 82.6142 27.5674C82.4737 27.5674 82.3336 27.5638 82.1752 27.5596ZM82.1504 26.3634C82.2562 26.3898 82.3703 26.4039 82.4857 26.4039C82.8236 26.4039 83.2135 26.292 83.643 26.0725C84.8908 25.461 85.5838 23.7225 85.7004 20.8797C85.5838 17.6747 84.8481 15.8918 83.4982 15.5808H82.1836C82.0571 15.5808 81.9537 15.7578 81.9537 15.9741V25.9769C81.9537 26.171 82.0373 26.337 82.1504 26.3634ZM99.4502 14.5335V38.2644H106.945C106.909 37.8332 106.89 37.4358 106.89 37.1052C106.89 36.7292 106.906 36.376 106.939 36.055C106.423 36.1903 105.852 36.2986 105.242 36.3701C104.528 36.4663 103.583 36.5124 102.349 36.5124C102.222 36.5124 102.119 36.3352 102.119 36.1214V26.9619C102.119 26.7469 102.222 26.5699 102.349 26.5699H104.569C105.403 26.6561 106.162 26.7378 106.857 26.8192C106.845 26.7217 106.831 26.6123 106.814 26.4928L106.807 24.85C106.807 24.805 106.81 24.7624 106.819 24.7247C106.827 24.6829 106.834 24.6417 106.842 24.6046C106.148 24.7452 105.385 24.8182 104.569 24.8182H102.349C102.222 24.8182 102.119 24.6417 102.119 24.4269V16.6779C102.119 16.4616 102.222 16.2858 102.349 16.2858C103.829 16.2858 105.382 16.453 106.968 16.7801C106.915 16.3974 106.89 16.0326 106.89 15.693C106.89 15.2851 106.915 14.8984 106.97 14.5336H99.4502V14.5335ZM113.434 38.2646H108.871V14.5335L114.74 14.5315C118.698 14.9931 120.727 18.6444 120.943 25.6724C120.676 33.5708 118.15 37.8075 113.434 38.2646ZM117.864 25.6942C117.864 19.1717 116.153 15.8613 112.784 15.8613H111.765C111.641 15.8613 111.537 16.039 111.537 16.2553V36.5441C111.537 36.7583 111.641 36.9362 111.765 36.9362H112.665C114.388 36.9362 115.702 35.9722 116.572 34.076C117.428 32.2042 117.864 29.3849 117.864 25.6942ZM89.9859 14.5335V38.2644H97.4796C97.444 37.8332 97.4237 37.4358 97.4237 37.1052C97.4237 36.7292 97.4402 36.376 97.4726 36.055C96.9554 36.1903 96.3858 36.2986 95.7768 36.3701C95.0633 36.4663 94.1159 36.5124 92.8815 36.5124C92.7562 36.5124 92.6525 36.3352 92.6525 36.1214V26.9619C92.6525 26.7469 92.7562 26.5699 92.8815 26.5699H95.1028C95.938 26.6561 96.6956 26.7378 97.391 26.8192C97.379 26.7217 97.3645 26.6123 97.3481 26.4928L97.3407 24.85C97.3407 24.805 97.3453 24.7624 97.3534 24.7247C97.3607 24.6829 97.3681 24.6417 97.3739 24.6046C96.6831 24.7452 95.9201 24.8182 95.1028 24.8182H92.8815C92.7562 24.8182 92.6525 24.6417 92.6525 24.4269V16.6779C92.6525 16.4616 92.7562 16.2858 92.8815 16.2858C94.3613 16.2858 95.9152 16.453 97.5009 16.7801C97.4499 16.3974 97.4238 16.0326 97.4238 15.693C97.4238 15.2851 97.4511 14.8984 97.5021 14.5336H89.9859V14.5335Z" fill="#002D73"/>
<path d="M26.2041 26.0324L19.3735 14.3329L16.4645 20.6591L19.601 26.0322C19.8904 26.5285 19.8904 27.339 19.601 27.8349L18.6939 29.3885C18.6939 29.3885 19.3056 30.9572 19.3338 31.0516C19.4748 31.5366 19.509 32.6755 19.1083 33.195L11.9743 42.5779C11.9726 45.7266 11.9701 52.2006 11.973 52.2034C11.9743 52.2041 26.2043 27.8347 26.2043 27.8347C26.4934 27.3384 26.4934 26.5286 26.2041 26.0324Z" fill="#3E8EDE"/>
<path d="M10.3399 27.5046C10.0516 27.011 10.0516 26.2012 10.3399 25.7047L11.2483 24.1485L10.6273 22.6197C10.3312 21.9013 10.4244 20.8798 10.8327 20.345L17.9681 10.9614L17.973 1.34193L17.969 1.338L17.9653 1.32944L3.73762 25.7047C3.44803 26.2012 3.44803 27.011 3.73824 27.5069L10.5673 39.2066L13.4772 32.8804L10.3399 27.5046Z" fill="#002D73"/>
<path d="M21.5643 7.02787C21.6988 7.02787 21.8296 7.16831 21.8899 7.37692C21.9984 7.76041 21.8417 8.10232 21.7555 8.29058L15.5033 21.8854C15.4399 22.0224 15.4345 22.3176 15.4929 22.4593C15.5266 22.5432 18.8683 30.8478 18.9832 31.13C19.1475 31.5352 19.1319 32.5788 18.8045 33.0039L8.75204 46.2245C8.6109 46.4099 8.50621 46.5107 8.35975 46.513C8.2336 46.4986 8.10715 46.3562 8.05225 46.167C7.94215 45.7839 8.10715 45.4199 8.18631 45.2453L14.4368 31.6564C14.5009 31.5094 14.5073 31.229 14.4495 31.0793L10.9605 22.4837C10.7076 21.8676 10.7861 20.9935 11.1356 20.5356L21.19 7.31321C21.3411 7.1105 21.4496 7.02787 21.5643 7.02787ZM21.5643 6.98326C21.4437 6.98326 21.3304 7.06838 21.1739 7.2777L11.1196 20.4999C10.7585 20.9732 10.6778 21.8726 10.9391 22.5093L14.4281 31.1046C14.4794 31.2381 14.473 31.4987 14.4159 31.6296L8.16579 45.2178C8.08329 45.3999 7.91183 45.7796 8.02892 46.1868C8.08777 46.3901 8.22267 46.5421 8.35798 46.5576C8.51465 46.5553 8.62673 46.4452 8.76777 46.26L18.8204 33.0394C19.168 32.5883 19.1692 31.5111 19.0047 31.1046C18.8885 30.8191 15.5143 22.434 15.5143 22.434C15.4626 22.3081 15.4675 22.0346 15.5237 21.9131L21.7759 8.31806C21.8578 8.13926 22.0299 7.76933 21.9133 7.35729C21.8487 7.13405 21.7094 6.98326 21.5643 6.98326Z" fill="#3E8EDE"/>
<path d="M18.644 31.2629C18.725 31.4731 18.7981 32.269 18.5942 32.532L8.54024 45.7544C8.45556 45.8654 8.40139 45.9191 8.37722 45.9157C8.34253 45.9191 8.36764 45.8137 8.45993 45.6097L14.7095 32.0245C14.8676 31.6741 14.8783 31.0996 14.7332 30.742L11.2445 22.1411C11.2445 22.1413 18.5633 31.0518 18.644 31.2629Z" fill="#FFCE00"/>
<path d="M18.644 31.2629L15.2084 22.7969C15.0626 22.438 15.0743 21.8622 15.2304 21.5206L21.481 7.92707C21.5739 7.72453 21.598 7.62335 21.5646 7.62335C21.5398 7.62335 21.4847 7.67296 21.4015 7.7861L11.3473 21.0069C11.1455 21.2728 11.0978 21.7846 11.2446 22.1413L18.644 31.2629Z" fill="#FFDE6E"/>
</svg>
