<svg width="54" height="75" viewBox="0 0 54 75" fill="none" xmlns="http://www.w3.org/2000/svg">
<path d="M46.0892 32.7085C44.5983 32.7085 13.6039 32.7085 11.894 32.7085V17.841C11.894 9.64306 18.5636 2.9735 26.7615 2.9735C34.9596 2.9735 41.629 9.64306 41.629 17.841C41.629 18.6621 42.2948 19.3277 43.1157 19.3277C43.9367 19.3277 44.6025 18.6621 44.6025 17.841C44.6025 8.00347 36.599 0 26.7615 0C16.924 0 8.9205 8.00347 8.9205 17.841V32.7085H7.43375C3.33478 32.7085 0 36.0433 0 40.1422V66.9037C0 71.0027 3.33478 74.3375 7.43375 74.3375H46.0892C50.1882 74.3375 53.523 71.0027 53.523 66.9037V40.1422C53.523 36.0433 50.1882 32.7085 46.0892 32.7085ZM50.5495 66.9037C50.5495 69.3631 48.5486 71.364 46.0892 71.364H7.43375C4.97437 71.364 2.9735 69.3631 2.9735 66.9037V40.1422C2.9735 37.6829 4.97437 35.682 7.43375 35.682H46.0892C48.5486 35.682 50.5495 37.6829 50.5495 40.1422V66.9037Z" fill="#BB6CFB"/>
<path d="M26.7619 41.629C22.6629 41.629 19.3281 44.9637 19.3281 49.0627C19.3281 52.6526 21.8861 55.6563 25.2751 56.3469V63.9302C25.2751 64.7512 25.9407 65.417 26.7619 65.417C27.5829 65.417 28.2486 64.7512 28.2486 63.9302V56.3469C31.6377 55.6562 34.1956 52.6526 34.1956 49.0627C34.1956 44.9637 30.8608 41.629 26.7619 41.629ZM26.7619 53.523C24.3025 53.523 22.3016 51.5221 22.3016 49.0627C22.3016 46.6033 24.3025 44.6025 26.7619 44.6025C29.2213 44.6025 31.2221 46.6033 31.2221 49.0627C31.2221 51.5221 29.2213 53.523 26.7619 53.523Z" fill="#BB6CFB"/>
</svg>
