<svg width="80" height="56" viewBox="0 0 80 56" fill="none" xmlns="http://www.w3.org/2000/svg">
<path fill-rule="evenodd" clip-rule="evenodd" d="M7.85501 55.283H71.929C74.0117 55.2806 76.0084 54.4522 77.481 52.9794C78.9536 51.5067 79.7818 49.5099 79.784 47.4273V7.85576C79.7818 5.77308 78.9536 3.77632 77.481 2.30358C76.0084 0.830832 74.0117 0.00238428 71.929 0H7.85501C5.77233 0.00238428 3.77565 0.830832 2.30305 2.30358C0.830442 3.77632 0.00218528 5.77308 0 7.85576V47.4273C0.00218528 49.5099 0.830442 51.5067 2.30305 52.9794C3.77565 54.4522 5.77233 55.2806 7.85501 55.283ZM6.25162 3.27646C6.76214 3.09729 7.3037 3.00299 7.85501 3.00239H71.929C72.482 3.00299 73.0251 3.09785 73.5369 3.27805L39.8924 32.9753L6.25162 3.27646ZM3.83157 5.14571L25.2081 24.0156L3.2697 49.012C3.09484 48.5069 3.0029 47.9719 3.00239 47.4273V7.85576C3.00329 6.88312 3.29585 5.9408 3.83157 5.14571ZM38.8986 36.1008L27.4602 26.0036L5.13312 51.4429C5.93063 51.9839 6.87749 52.2796 7.85501 52.2806H71.929C72.9328 52.2795 73.9043 51.9678 74.715 51.3987L52.3847 25.9557L40.8877 36.1045C40.6125 36.3459 40.2585 36.4781 39.8924 36.4761C39.5265 36.4763 39.1731 36.3428 38.8986 36.1008ZM54.6368 23.9677L76.5428 48.9273C76.6992 48.4473 76.7812 47.9415 76.7816 47.4273V7.85576C76.7807 6.88461 76.4891 5.94367 75.9549 5.14935L54.6368 23.9677Z" fill="#BB6CFB"/>
</svg>
