<svg width="32" height="33" viewBox="0 0 32 33" fill="none" xmlns="http://www.w3.org/2000/svg">
<path d="M32 11.3496C32 13.9335 31.1587 16.3675 29.5672 18.3886C28.0232 20.3492 25.8511 21.7598 23.451 22.3605L23.2342 21.4846C27.8667 20.3252 31.1022 16.1574 31.1022 11.3495C31.1022 5.58907 26.4416 0.902558 20.713 0.902558C14.9834 0.902558 10.322 5.58907 10.322 11.3495H9.42423C9.42423 5.09142 14.4884 0 20.713 0C26.9366 0 32 5.09142 32 11.3496ZM19.9716 15.5919H20.2642V17.3806H21.1619V15.5902C22.4176 15.5532 23.428 14.5155 23.428 13.2441C23.428 11.9506 22.3805 10.8982 21.0929 10.8982C19.5119 10.8982 18.8959 10.4931 18.8959 9.45309C18.8959 8.65722 19.5406 8.00975 20.3332 8.00975H21.4527C22.0469 8.00975 22.5302 8.49493 22.5302 9.09132V9.5426H23.428V9.09132C23.428 7.99722 22.5419 7.10719 21.4527 7.10719H21.1619V5.31667H20.2642V7.10894C19.0085 7.14587 17.9981 8.18282 17.9981 9.45309C17.9981 11.8009 20.3274 11.8009 21.0929 11.8009C21.8855 11.8009 22.5302 12.4483 22.5302 13.2441C22.5302 14.041 21.8855 14.6893 21.0929 14.6893H19.9716C19.3784 14.6893 18.8959 14.2033 18.8959 13.6059V13.1546H17.9981V13.6059C17.998 14.7011 18.8833 15.5919 19.9716 15.5919ZM21.8297 22.7521C22.3002 23.1481 22.5416 23.753 22.5416 24.3535C22.5416 25.1388 22.1286 25.9316 21.3309 26.2548C21.6137 26.6257 21.7579 27.0923 21.7579 27.5562C21.7579 28.0858 21.5777 28.5829 21.2503 28.9558C21.1503 29.0697 21.019 29.192 20.851 29.2996C21.2225 29.6903 21.4126 30.2264 21.4126 30.7591C21.4126 31.7791 20.7154 32.8118 19.3827 32.8118H9.2226C9.09118 32.8118 8.96637 32.7538 8.88107 32.6533C8.44345 32.1374 7.86233 31.8634 6.98735 31.7711V32.5487C6.98735 32.798 6.78636 33 6.53849 33H0.448861C0.200921 33 0 32.7979 0 32.5487V20.6217C0 20.3725 0.200986 20.1705 0.448861 20.1705H6.53849C6.78643 20.1705 6.98735 20.3725 6.98735 20.6217V21.3149C7.39658 21.221 7.70438 21.0636 7.93215 20.8324L10.5795 11.5973C10.6125 11.4821 10.6896 11.3849 10.7941 11.3271C10.8984 11.2692 11.0213 11.2554 11.1359 11.2889L11.8119 11.4862C11.8681 11.5025 11.9235 11.5206 11.9787 11.539C11.9415 9.93434 12.3397 8.36435 13.1481 6.95808C14.3146 4.92655 16.1983 3.47313 18.452 2.86583C20.7062 2.25833 23.0603 2.57025 25.0809 3.74391C29.252 6.16472 30.6863 11.5466 28.2781 15.7408C26.9721 18.014 24.7548 19.5546 22.2179 19.9993C22.4322 20.342 22.5417 20.7472 22.5417 21.1508C22.5416 21.7512 22.3002 22.3561 21.8297 22.7521ZM12.9003 11.9743C13.5124 12.3587 14.0219 12.8954 14.3818 13.5498C14.8905 14.4748 15.0432 15.5291 14.8237 16.5485C15.3875 17.1939 16.0487 17.7408 16.7942 18.1738C17.5715 18.6247 18.4079 18.9352 19.2802 19.098H20.5132C20.7758 19.098 21.0133 19.1387 21.226 19.211C23.8468 19.0355 26.1875 17.5753 27.5008 15.2896C29.6615 11.5263 28.3745 6.69757 24.6321 4.52545C22.8191 3.47242 20.7068 3.1926 18.6845 3.73758C16.6623 4.2825 14.9722 5.58655 13.9256 7.40949C13.1237 8.80401 12.772 10.3776 12.9003 11.9743ZM14.1041 19.098H16.6018C16.5158 19.0518 16.4301 19.0045 16.3454 18.9553C15.6825 18.5704 15.0793 18.1048 14.543 17.5673L14.1041 19.098ZM6.08956 21.073H0.897723V32.0973H6.08956V21.073ZM21.6439 21.1507C21.6439 20.5782 21.2942 20.0006 20.5131 20.0006H13.5077C13.3666 20.0006 13.2338 19.934 13.149 19.8206C13.0642 19.7073 13.0373 19.5606 13.0763 19.4243L13.8905 16.5851C14.1412 15.7104 14.0366 14.7875 13.5962 13.9865C13.1555 13.1853 12.4334 12.6053 11.5626 12.3533L11.3175 12.2817L8.76526 21.1852C8.74708 21.2485 8.71541 21.307 8.67238 21.3568C8.27734 21.8124 7.72327 22.101 6.98741 22.2346V30.8625C7.7893 30.933 8.6973 31.159 9.42089 31.9091H19.3828C20.1649 31.9091 20.515 31.3315 20.515 30.759C20.515 30.1866 20.1649 29.6089 19.3828 29.6089H17.7073V28.7063H19.3827H19.728C20.089 28.7063 20.3747 28.5894 20.5772 28.3586C20.7569 28.1537 20.8601 27.8612 20.8601 27.5562C20.8601 26.9838 20.51 26.4062 19.7279 26.4062H17.7073V25.5036H19.728H20.5131C21.2942 25.5036 21.6438 24.9259 21.6438 24.3535C21.6438 23.7811 21.2941 23.2034 20.5131 23.2034H17.7073V22.3008H20.5131C21.2943 22.3008 21.6439 21.7232 21.6439 21.1507Z" fill="black"/>
</svg>
