<svg width="136" height="44" viewBox="0 0 136 44" fill="none" xmlns="http://www.w3.org/2000/svg">
<path d="M18.208 34.384C7.888 34.384 0.304 27.04 0.304 17.2C0.304 7.36 7.888 0.0159998 18.208 0.0159998C28.432 0.0159998 36.016 7.312 36.016 17.2C36.016 27.088 28.432 34.384 18.208 34.384ZM18.208 30.112C25.648 30.112 31.216 24.64 31.216 17.2C31.216 9.76 25.648 4.288 18.208 4.288C10.672 4.288 5.104 9.76 5.104 17.2C5.104 24.64 10.672 30.112 18.208 30.112ZM53.5765 34.288C45.9445 34.288 40.3285 28.864 40.3285 21.28C40.3285 13.696 45.9445 8.32 53.5765 8.32C61.2085 8.32 66.7765 13.696 66.7765 21.28C66.7765 28.864 61.2085 34.288 53.5765 34.288ZM53.5765 30.256C58.4725 30.256 62.1205 26.704 62.1205 21.28C62.1205 15.856 58.4725 12.352 53.5765 12.352C48.6805 12.352 44.9845 15.856 44.9845 21.28C44.9845 26.704 48.6805 30.256 53.5765 30.256ZM86.6373 8.32C94.0773 8.32 99.5013 13.504 99.5013 21.28C99.5013 29.104 94.0773 34.288 86.6373 34.288C83.0373 34.288 79.8693 32.896 77.7573 30.16V43.312H73.1493V8.56H77.5653V12.592C79.6293 9.76 82.8932 8.32 86.6373 8.32ZM86.2533 30.256C91.1493 30.256 94.8453 26.704 94.8453 21.28C94.8453 15.904 91.1493 12.352 86.2533 12.352C81.4053 12.352 77.7093 15.904 77.7093 21.28C77.7093 26.704 81.4053 30.256 86.2533 30.256ZM113.164 34.288C108.94 34.288 104.764 32.992 102.652 31.312L104.572 27.664C106.732 29.2 110.188 30.304 113.5 30.304C117.772 30.304 119.548 29.008 119.548 26.848C119.548 21.136 103.468 26.08 103.468 15.952C103.468 11.392 107.548 8.32 114.076 8.32C117.388 8.32 121.132 9.184 123.34 10.624L121.372 14.272C119.068 12.784 116.524 12.256 114.028 12.256C109.996 12.256 108.028 13.744 108.028 15.76C108.028 21.76 124.156 16.864 124.156 26.752C124.156 31.36 119.932 34.288 113.164 34.288ZM130.155 23.392L129.291 0.399998H134.715L133.803 23.392H130.155ZM132.027 34.288C130.203 34.288 128.859 32.896 128.859 31.216C128.859 29.488 130.203 28.144 132.027 28.144C133.803 28.144 135.099 29.488 135.099 31.216C135.099 32.896 133.803 34.288 132.027 34.288Z" fill="#FF0000"/>
</svg>
