<svg width="61" height="29" viewBox="0 0 61 29" fill="none" xmlns="http://www.w3.org/2000/svg">
<g filter="url(#filter0_d_1091_2025)">
<rect x="4" y="4" width="53" height="21" rx="3" fill="white"/>
</g>
<path d="M21 18.5V16.5C21 16.3674 20.9473 16.2402 20.8536 16.1464C20.7598 16.0527 20.6326 16 20.5 16C20.3674 16 20.2402 16.0527 20.1464 16.1464C20.0527 16.2402 20 16.3674 20 16.5V18.5C20 18.6326 19.9473 18.7598 19.8536 18.8536C19.7598 18.9473 19.6326 19 19.5 19H10.5C10.3674 19 10.2402 18.9473 10.1464 18.8536C10.0527 18.7598 10 18.6326 10 18.5V16.5C10 16.3674 9.94732 16.2402 9.85355 16.1464C9.75979 16.0527 9.63261 16 9.5 16C9.36739 16 9.24021 16.0527 9.14645 16.1464C9.05268 16.2402 9 16.3674 9 16.5V18.5C9 18.8978 9.15804 19.2794 9.43934 19.5607C9.72064 19.842 10.1022 20 10.5 20H19.5C19.8978 20 20.2794 19.842 20.5607 19.5607C20.842 19.2794 21 18.8978 21 18.5ZM17.81 15.89L15.31 17.89C15.2217 17.9598 15.1125 17.9977 15 17.9977C14.8875 17.9977 14.7783 17.9598 14.69 17.89L12.19 15.89C12.0989 15.804 12.0434 15.687 12.0345 15.562C12.0256 15.4371 12.0639 15.3133 12.1418 15.2153C12.2197 15.1172 12.3317 15.052 12.4554 15.0325C12.5791 15.013 12.7057 15.0407 12.81 15.11L14.5 16.46V9.5C14.5 9.36739 14.5527 9.24021 14.6464 9.14645C14.7402 9.05268 14.8674 9 15 9C15.1326 9 15.2598 9.05268 15.3536 9.14645C15.4473 9.24021 15.5 9.36739 15.5 9.5V16.46L17.19 15.11C17.2403 15.0625 17.3 15.0259 17.3652 15.0027C17.4304 14.9794 17.4998 14.9699 17.5688 14.9749C17.6379 14.9798 17.7052 14.999 17.7664 15.0313C17.8277 15.0636 17.8815 15.1083 17.9246 15.1625C17.9677 15.2167 17.9991 15.2792 18.0167 15.3462C18.0343 15.4131 18.0379 15.483 18.0271 15.5514C18.0163 15.6198 17.9915 15.6852 17.9541 15.7435C17.9167 15.8018 17.8677 15.8517 17.81 15.89Z" fill="black"/>
<path d="M35.536 10.6C37.72 10.6 39.04 11.704 39.04 13.528C39.04 15.352 37.72 16.456 35.536 16.456H33.46V19H32.26V10.6H35.536ZM35.5 15.412C37.036 15.412 37.84 14.728 37.84 13.528C37.84 12.328 37.036 11.644 35.5 11.644H33.46V15.412H35.5ZM45.4595 10.096H46.6115V19H45.5075V17.992C44.9915 18.712 44.1755 19.072 43.2395 19.072C41.3795 19.072 40.0235 17.764 40.0235 15.82C40.0235 13.876 41.3795 12.58 43.2395 12.58C44.1395 12.58 44.9315 12.916 45.4595 13.6V10.096ZM43.3355 18.064C44.5475 18.064 45.4715 17.176 45.4715 15.82C45.4715 14.464 44.5475 13.588 43.3355 13.588C42.1115 13.588 41.1875 14.464 41.1875 15.82C41.1875 17.176 42.1115 18.064 43.3355 18.064ZM51.1192 10.972C50.4352 10.972 50.0872 11.356 50.0872 12.088V12.64H51.9352V13.588H50.1112V19H48.9592V13.588H47.8792V12.64H48.9592V12.076C48.9592 10.84 49.7032 10.024 51.0592 10.024C51.5512 10.024 52.0312 10.144 52.3552 10.396L52.0072 11.272C51.7672 11.092 51.4552 10.972 51.1192 10.972Z" fill="black"/>
<defs>
<filter id="filter0_d_1091_2025" x="0" y="0" width="61" height="29" filterUnits="userSpaceOnUse" color-interpolation-filters="sRGB">
<feFlood flood-opacity="0" result="BackgroundImageFix"/>
<feColorMatrix in="SourceAlpha" type="matrix" values="0 0 0 0 0 0 0 0 0 0 0 0 0 0 0 0 0 0 127 0" result="hardAlpha"/>
<feOffset/>
<feGaussianBlur stdDeviation="2"/>
<feComposite in2="hardAlpha" operator="out"/>
<feColorMatrix type="matrix" values="0 0 0 0 0 0 0 0 0 0 0 0 0 0 0 0 0 0 0.1 0"/>
<feBlend mode="normal" in2="BackgroundImageFix" result="effect1_dropShadow_1091_2025"/>
<feBlend mode="normal" in="SourceGraphic" in2="effect1_dropShadow_1091_2025" result="shape"/>
</filter>
</defs>
</svg>
