<svg width="20" height="27" viewBox="0 0 20 27" fill="none" xmlns="http://www.w3.org/2000/svg">
<path d="M19.3474 0.675089C18.9479 0.491053 18.4772 0.562667 18.1505 0.857075L16.4266 2.38346C16.3797 2.4252 16.309 2.42495 16.2624 2.38297L13.9168 0.285091C13.4926 -0.0950304 12.8503 -0.0950304 12.4261 0.285091L10.0826 2.38104C10.0355 2.42315 9.96425 2.42315 9.91711 2.38104L7.5734 0.285091C7.14918 -0.0949683 6.50695 -0.0949683 6.08273 0.285091L3.73684 2.38297C3.68988 2.42495 3.61895 2.42514 3.57175 2.3834L1.84629 0.857075C1.38853 0.449997 0.68742 0.491053 0.280342 0.948814C0.0977962 1.15409 -0.00207897 1.4198 3.28172e-05 1.69446V24.5821C-0.00406653 25.1957 0.489967 25.6964 1.1035 25.7005C1.37835 25.7023 1.64406 25.6022 1.8494 25.4195L3.5733 23.8931C3.6202 23.8514 3.69094 23.8516 3.73759 23.8936L6.08316 25.9915C6.50738 26.3716 7.14961 26.3716 7.57383 25.9915L9.91755 23.8956C9.96469 23.8534 10.0359 23.8534 10.0831 23.8956L12.4268 25.9914C12.8511 26.3714 13.4932 26.3714 13.9175 25.9914L16.2635 23.8936C16.3104 23.8516 16.3814 23.8514 16.4286 23.8931L18.154 25.4195C18.612 25.8264 19.313 25.785 19.7199 25.327C19.9021 25.1219 20.0019 24.8565 19.9999 24.5821V1.69446C20.0057 1.25477 19.7491 0.853845 19.3474 0.675089ZM4.11224 8.91472H10.2977C10.5721 8.91472 10.7946 9.13721 10.7946 9.41162C10.7946 9.68602 10.5721 9.90851 10.2977 9.90851H4.11224C3.83783 9.90851 3.61535 9.68602 3.61535 9.41162C3.61535 9.13721 3.83783 8.91472 4.11224 8.91472ZM15.8877 17.3619H4.11224C3.83783 17.3619 3.61535 17.1394 3.61535 16.865C3.61535 16.5906 3.83783 16.3681 4.11224 16.3681H15.8877C16.1621 16.3681 16.3846 16.5906 16.3846 16.865C16.3846 17.1394 16.1621 17.3619 15.8877 17.3619ZM15.8877 13.6352H4.11224C3.83783 13.6352 3.61535 13.4127 3.61535 13.1383C3.61535 12.8639 3.83783 12.6414 4.11224 12.6414H15.8877C16.1621 12.6414 16.3846 12.8639 16.3846 13.1383C16.3846 13.4127 16.1621 13.6352 15.8877 13.6352Z" fill="white"/>
</svg>
