<svg width="20" height="27" viewBox="0 0 20 27" fill="none" xmlns="http://www.w3.org/2000/svg">
<path fill-rule="evenodd" clip-rule="evenodd" d="M17.9692 0.877234C18.328 0.554168 18.8446 0.475641 19.2831 0.677603C19.7241 0.873737 20.006 1.31361 19.9999 1.79625V24.4032C20.002 24.7046 19.8924 24.9962 19.6921 25.2214C19.245 25.7242 18.4749 25.7693 17.9721 25.3222L16.2678 23.8146L13.9507 25.8868C13.4852 26.3036 12.7805 26.3036 12.315 25.8868L9.99997 23.8165L7.68532 25.887C7.21992 26.3039 6.51533 26.3039 6.04993 25.887L3.73338 23.8148L2.03069 25.3225C1.80548 25.5227 1.51413 25.6325 1.21284 25.6307C0.539044 25.6267 -0.00395848 25.0773 2.92265e-05 24.4035V1.79625C-0.00205665 1.49502 0.107575 1.20367 0.307696 0.978521C0.754687 0.475641 1.52474 0.430304 2.02762 0.877295L3.73191 2.38489L6.04907 0.312697C6.51459 -0.104232 7.21925 -0.104232 7.68477 0.312697L9.99997 2.38293L12.3146 0.312697C12.78 -0.104232 13.4846 -0.104232 13.95 0.312697L16.2666 2.38489L17.9692 0.877234ZM15.4489 22.9C15.9121 22.4851 16.6127 22.4833 17.0782 22.8956L18.7791 24.4029L18.7729 17.3368V1.79625L17.0748 3.30391C16.6111 3.71617 15.9117 3.71427 15.4502 3.29949L13.1328 1.22735L10.8178 3.29759C10.3524 3.71452 9.6477 3.71452 9.18224 3.29759L6.86753 1.22735L4.55104 3.29949C4.0878 3.71433 3.38719 3.71617 2.92173 3.30384L1.22088 1.79655L1.22702 21.1326V24.4028L2.9251 22.8956C3.38884 22.4833 4.08822 22.4852 4.54969 22.9L6.86716 24.9721L9.18212 22.9019C9.64758 22.485 10.3522 22.485 10.8177 22.9019L13.1324 24.9721L15.4489 22.9ZM4.18413 12.4861H15.8151C16.1539 12.4861 16.4286 12.7607 16.4286 13.0996C16.4286 13.4384 16.1539 13.713 15.8151 13.713H4.18413C3.8453 13.713 3.57064 13.4384 3.57064 13.0996C3.57064 12.7607 3.8453 12.4861 4.18413 12.4861ZM10.2937 8.80544H4.18413C3.8453 8.80544 3.57064 9.0801 3.57064 9.41893C3.57064 9.75777 3.8453 10.0324 4.18413 10.0324H10.2937C10.6325 10.0324 10.9072 9.75777 10.9072 9.41893C10.9072 9.0801 10.6324 8.80544 10.2937 8.80544ZM4.18413 16.1672H15.8151C16.1539 16.1672 16.4286 16.4418 16.4286 16.7807C16.4286 17.1195 16.1539 17.3942 15.8151 17.3942H4.18413C3.8453 17.3942 3.57064 17.1195 3.57064 16.7807C3.57064 16.4418 3.8453 16.1672 4.18413 16.1672Z" fill="#808080"/>
</svg>
