<svg width="15" height="15" viewBox="0 0 15 15" fill="none" xmlns="http://www.w3.org/2000/svg">
<path d="M10.178 5.60358L8.25482 7.5L10.178 9.39643C10.2316 9.44654 10.2742 9.50711 10.3034 9.57438C10.3326 9.64164 10.3476 9.71418 10.3476 9.7875C10.3476 9.86082 10.3326 9.93336 10.3034 10.0006C10.2742 10.0679 10.2316 10.1285 10.178 10.1786C10.128 10.2282 10.0686 10.2675 10.0033 10.2942C9.93807 10.3208 9.86818 10.3343 9.79767 10.3339C9.65713 10.3333 9.52246 10.2775 9.42267 10.1786L7.49946 8.25536L5.60303 10.1786C5.50325 10.2775 5.36857 10.3333 5.22803 10.3339C5.15753 10.3343 5.08764 10.3208 5.02237 10.2942C4.9571 10.2675 4.89773 10.2282 4.84767 10.1786C4.7479 10.0782 4.69189 9.94242 4.69189 9.8009C4.69189 9.65937 4.7479 9.52359 4.84767 9.42322L6.7441 7.5L4.84767 5.60358C4.75991 5.50109 4.71405 5.36927 4.71926 5.23444C4.72446 5.09961 4.78036 4.97172 4.87576 4.87631C4.97117 4.7809 5.09907 4.72501 5.23389 4.7198C5.36872 4.71459 5.50055 4.76045 5.60303 4.84822L7.49946 6.74465L9.39589 4.84822C9.44549 4.79686 9.50471 4.75578 9.57019 4.72731C9.63566 4.69884 9.7061 4.68355 9.77749 4.68231C9.84887 4.68107 9.9198 4.69389 9.98623 4.72006C10.0527 4.74623 10.1133 4.78523 10.1646 4.83483C10.216 4.88442 10.2571 4.94365 10.2855 5.00913C10.314 5.0746 10.3293 5.14504 10.3305 5.21643C10.3318 5.28781 10.319 5.35874 10.2928 5.42517C10.2666 5.4916 10.2276 5.55222 10.178 5.60358ZM12.803 12.8036C11.7541 13.8524 10.4177 14.5666 8.96289 14.8559C7.50806 15.1453 6.0001 14.9967 4.6297 14.429C3.2593 13.8613 2.088 12.9001 1.26392 11.6667C0.439848 10.4333 0 8.98333 0 7.5C0 6.01668 0.439848 4.56666 1.26392 3.33331C2.088 2.09995 3.2593 1.13866 4.6297 0.57098C6.0001 0.00330039 7.50806 -0.145269 8.96289 0.144058C10.4177 0.433385 11.7541 1.14761 12.803 2.19643C13.4995 2.89288 14.0521 3.71971 14.429 4.6297C14.806 5.53969 15 6.51503 15 7.5C15 8.48498 14.806 9.46031 14.429 10.3703C14.0521 11.2803 13.4995 12.1071 12.803 12.8036ZM12.0477 2.95179C11.1477 2.05497 10.0022 1.44492 8.75583 1.19868C7.50942 0.952445 6.21799 1.08105 5.04462 1.56827C3.87126 2.05549 2.86857 2.87947 2.16317 3.93616C1.45778 4.99285 1.08131 6.23486 1.08131 7.50536C1.08131 8.77586 1.45778 10.0179 2.16317 11.0746C2.86857 12.1313 3.87126 12.9552 5.04462 13.4424C6.21799 13.9297 7.50942 14.0583 8.75583 13.812C10.0022 13.5658 11.1477 12.9558 12.0477 12.0589C12.647 11.4617 13.1225 10.752 13.447 9.97062C13.7714 9.18922 13.9385 8.35145 13.9385 7.50536C13.9385 6.65927 13.7714 5.8215 13.447 5.0401C13.1225 4.25869 12.647 3.54903 12.0477 2.95179Z" fill="#BB6CFB"/>
</svg>
