<svg width="74" height="74" viewBox="0 0 74 74" fill="none" xmlns="http://www.w3.org/2000/svg">
<g clip-path="url(#clip0_685_1335)">
<path d="M37 74C16.5974 74 0 57.4026 0 37C0 16.5974 16.5974 0 37 0C57.4026 0 74 16.5974 74 37C74 57.4026 57.4026 74 37 74ZM37 4.625C19.1476 4.625 4.625 19.1476 4.625 37C4.625 54.8524 19.1476 69.375 37 69.375C54.8524 69.375 69.375 54.8524 69.375 37C69.375 19.1476 54.8524 4.625 37 4.625Z" fill="#BB6CFB"/>
<path d="M25.5551 50.7576C24.9629 50.7576 24.3706 50.5329 23.9207 50.0795C23.0173 49.1762 23.0173 47.7117 23.9207 46.8084L46.8142 23.9143C47.7181 23.011 49.1826 23.011 50.0859 23.9143C50.9892 24.8176 50.9892 26.2821 50.0859 27.186L27.1918 50.0795C26.7356 50.5329 26.144 50.7576 25.5551 50.7576Z" fill="#BB6CFB"/>
<path d="M48.4456 50.7576C47.8539 50.7576 47.2616 50.5329 46.8117 50.0795L23.9181 27.1888C23.0143 26.2855 23.0143 24.821 23.9181 23.9177C24.8215 23.0138 26.286 23.0138 27.1893 23.9177L50.0828 46.8112C50.9867 47.7145 50.9867 49.179 50.0828 50.0823C49.63 50.5329 49.0378 50.7576 48.4456 50.7576Z" fill="#BB6CFB"/>
</g>
<defs>
<clipPath id="clip0_685_1335">
<rect width="74" height="74" fill="white"/>
</clipPath>
</defs>
</svg>
