<svg width="31" height="37" viewBox="0 0 31 37" fill="none" xmlns="http://www.w3.org/2000/svg">
<path fill-rule="evenodd" clip-rule="evenodd" d="M30.8652 9.30427C30.8652 7.74506 29.9463 6.33111 28.5213 5.69717C25.5868 4.39374 19.9863 1.90453 17.4687 0.785059C16.4479 0.331901 15.2826 0.331901 14.2618 0.785059C11.7442 1.90453 6.14365 4.39374 3.20918 5.69717C1.78418 6.33111 0.865234 7.74506 0.865234 9.30427V21.463C0.865234 26.3372 3.56208 29.8045 6.69155 32.1659C9.7334 34.4601 13.1723 35.6956 14.7647 36.1835C14.7686 36.1851 14.7734 36.1859 14.7773 36.1874C15.4879 36.3919 16.2418 36.3919 16.9524 36.1882C16.9571 36.1866 16.9618 36.1859 16.9665 36.1843C18.5589 35.6956 21.9971 34.4609 25.0389 32.1659C28.1684 29.8045 30.8652 26.3372 30.8652 21.463V9.30427ZM29.2863 9.30427V21.463C29.2863 25.7743 26.8563 28.8161 24.0876 30.9051C21.236 33.0572 18.0102 34.2122 16.511 34.6724C16.0902 34.7916 15.6442 34.7916 15.2234 34.6724C13.721 34.2114 10.4952 33.0572 7.64286 30.9051C4.87418 28.8161 2.44418 25.7743 2.44418 21.463V9.30427C2.44418 8.36874 2.99524 7.52085 3.85103 7.14033C6.78472 5.83611 12.3852 3.3469 14.9037 2.22822C15.5155 1.95585 16.215 1.95585 16.8268 2.22822C19.3452 3.3469 24.9458 5.83611 27.8794 7.14033C28.7352 7.52085 29.2863 8.36874 29.2863 9.30427Z" fill="black"/>
<path fill-rule="evenodd" clip-rule="evenodd" d="M15.8642 9.79694C11.1194 9.79694 7.26758 13.6488 7.26758 18.3927C7.26758 23.1375 11.1194 26.9893 15.8642 26.9893C20.6089 26.9893 24.4607 23.1375 24.4607 18.3927C24.4607 13.6488 20.6089 9.79694 15.8642 9.79694ZM15.8642 11.3759C19.7373 11.3759 22.8818 14.5196 22.8818 18.3927C22.8818 22.2659 19.7373 25.4104 15.8642 25.4104C11.991 25.4104 8.84653 22.2659 8.84653 18.3927C8.84653 14.5196 11.991 11.3759 15.8642 11.3759Z" fill="black"/>
<path fill-rule="evenodd" clip-rule="evenodd" d="M11.9214 18.9753L14.1541 21.208C14.4622 21.5161 14.9623 21.5161 15.2704 21.208L19.7356 16.7427C20.0438 16.4346 20.0438 15.9345 19.7357 15.6264C19.4275 15.3183 18.9274 15.3183 18.6193 15.6264L14.7122 19.5335L13.0378 17.859C12.7297 17.5509 12.2295 17.5509 11.9214 17.859C11.6133 18.1671 11.6133 18.6672 11.9214 18.9753Z" fill="black"/>
</svg>
