<svg width="77" height="92" viewBox="0 0 77 92" fill="none" xmlns="http://www.w3.org/2000/svg">
<path fill-rule="evenodd" clip-rule="evenodd" d="M76.1352 22.4829C76.1352 18.5259 73.8031 14.9375 70.1866 13.3287C62.7394 10.0208 48.5262 3.70358 42.1368 0.862531C39.5462 -0.28751 36.589 -0.28751 33.9984 0.862531C27.609 3.70358 13.3958 10.0208 5.94855 13.3287C2.33213 14.9375 0 18.5259 0 22.4829V53.3397C0 65.7097 6.84416 74.5093 14.7863 80.5019C22.506 86.3243 31.2334 89.4599 35.2746 90.6981C35.2846 90.7021 35.2967 90.7041 35.3067 90.7081C37.1099 91.227 39.0233 91.227 40.8265 90.7101C40.8385 90.7061 40.8505 90.7041 40.8625 90.7001C44.9037 89.4599 53.6292 86.3263 61.3489 80.5019C69.291 74.5093 76.1352 65.7097 76.1352 53.3397V22.4829ZM72.1281 22.4829V53.3397C72.1281 64.2811 65.9611 72.0008 58.9347 77.3023C51.6978 82.764 43.5112 85.6952 39.7065 86.8632C38.6386 87.1658 37.5066 87.1658 36.4387 86.8632C32.626 85.6932 24.4394 82.764 17.2005 77.3023C10.174 72.0008 4.00711 64.2811 4.00711 53.3397V22.4829C4.00711 20.1087 5.40562 17.9569 7.57748 16.9912C15.0227 13.6813 29.2359 7.36408 35.6273 4.52504C37.18 3.83381 38.9551 3.83381 40.5079 4.52504C46.8992 7.36408 61.1125 13.6813 68.5577 16.9912C70.7296 17.9569 72.1281 20.1087 72.1281 22.4829Z" fill="#BB6CFB"/>
<path fill-rule="evenodd" clip-rule="evenodd" d="M38.0687 23.7331C26.0273 23.7331 16.252 33.5085 16.252 45.5479C16.252 57.5893 26.0273 67.3646 38.0687 67.3646C50.1101 67.3646 59.8855 57.5893 59.8855 45.5479C59.8855 33.5085 50.1101 23.7331 38.0687 23.7331ZM38.0687 27.7403C47.8982 27.7403 55.8783 35.7184 55.8783 45.5479C55.8783 55.3773 47.8982 63.3575 38.0687 63.3575C28.2393 63.3575 20.2591 55.3773 20.2591 45.5479C20.2591 35.7184 28.2393 27.7403 38.0687 27.7403Z" fill="#BB6CFB"/>
<path fill-rule="evenodd" clip-rule="evenodd" d="M28.061 47.0265L33.7271 52.6926C34.509 53.4745 35.7782 53.4745 36.5601 52.6926L47.8923 41.3605C48.6742 40.5785 48.6742 39.3093 47.8923 38.5274C47.1103 37.7455 45.8411 37.7455 45.0592 38.5274L35.1436 48.443L30.8941 44.1935C30.1122 43.4116 28.843 43.4116 28.061 44.1935C27.2791 44.9754 27.2791 46.2446 28.061 47.0265Z" fill="#BB6CFB"/>
</svg>
