<svg width="56" height="57" viewBox="0 0 56 57" fill="none" xmlns="http://www.w3.org/2000/svg">
<path d="M32.5813 26.5778C32.0285 26.5778 31.4758 26.3673 31.0547 25.9452C27.6874 22.5778 22.2083 22.5767 18.8399 25.9452C17.9978 26.7883 16.6288 26.7883 15.7867 25.9452C14.9435 25.102 14.9435 23.7352 15.7867 22.892C20.8382 17.8393 29.0574 17.8404 34.1079 22.892C34.9511 23.7352 34.9511 25.102 34.1079 25.9452C33.6868 26.3673 33.133 26.5778 32.5813 26.5778Z" fill="#BB6CFB"/>
<path d="M31.0537 38.8952C27.736 38.8952 24.4184 37.6321 21.8931 35.1068C21.0499 34.2636 21.0499 32.8968 21.8931 32.0537C22.7352 31.2105 24.1042 31.2105 24.9463 32.0537C28.3136 35.421 33.7927 35.4221 37.1612 32.0537C38.0033 31.2105 39.3722 31.2105 40.2143 32.0537C41.0575 32.8968 41.0575 34.2636 40.2143 35.1068C37.688 37.6321 34.3703 38.8952 31.0537 38.8952Z" fill="#BB6CFB"/>
<path d="M38.6873 35.7384C38.1345 35.7384 37.5818 35.5279 37.1607 35.1058C36.3175 34.2626 36.3175 32.8958 37.1607 32.0526L49.2223 19.991C50.0644 19.1478 51.4333 19.1478 52.2754 19.991C53.1186 20.8342 53.1186 22.201 52.2754 23.0442L40.2139 35.1058C39.7928 35.5279 39.2401 35.7384 38.6873 35.7384Z" fill="#BB6CFB"/>
<path d="M20.5193 53.9063C19.9666 53.9063 19.4138 53.6958 18.9927 53.2736C18.1496 52.4304 18.1496 51.0636 18.9927 50.2205L25.735 43.4782C26.5771 42.635 27.9461 42.635 28.7882 43.4782C29.6313 44.3214 29.6313 45.6882 28.7882 46.5314L22.0459 53.2736C21.6249 53.6958 21.0721 53.9063 20.5193 53.9063Z" fill="#BB6CFB"/>
<path d="M5.2498 38.6383C4.69703 38.6383 4.14426 38.4278 3.72321 38.0057C2.88002 37.1625 2.88002 35.7957 3.72321 34.9525L15.7848 22.892C16.6279 22.0488 17.9958 22.0488 18.8379 22.892C19.6811 23.7352 19.6811 25.102 18.8379 25.9452L6.77638 38.0057C6.35425 38.4267 5.80148 38.6383 5.2498 38.6383Z" fill="#BB6CFB"/>
<path d="M28.7371 15.1521C28.1843 15.1521 27.6326 14.9416 27.2105 14.5205C26.3673 13.6774 26.3673 12.3106 27.2105 11.4663L33.9528 4.72297C34.7959 3.87978 36.1627 3.87978 37.007 4.72297C37.8502 5.56615 37.8502 6.93295 37.007 7.77722L30.2648 14.5205C29.8426 14.9405 29.2888 15.1521 28.7371 15.1521Z" fill="#BB6CFB"/>
<path d="M12.8853 56.9983C9.54603 56.9983 6.20675 55.7568 3.7247 53.2736C-1.24157 48.3074 -1.24157 39.9176 3.7247 34.9514C4.5668 34.1082 5.93577 34.1082 6.77787 34.9514C7.62106 35.7945 7.62106 37.1613 6.77787 38.0045C3.46775 41.3147 3.46775 46.9093 6.77787 50.2194C10.088 53.5295 15.6826 53.5295 18.9927 50.2194C19.8348 49.3762 21.2038 49.3762 22.0459 50.2194C22.8891 51.0626 22.8891 52.4294 22.0459 53.2726C19.5638 55.7568 16.2246 56.9983 12.8853 56.9983Z" fill="#BB6CFB"/>
<path d="M50.7473 23.6768C50.1945 23.6768 49.6418 23.4663 49.2207 23.0442C48.3775 22.201 48.3775 20.8342 49.2207 19.991C52.5309 16.6809 52.5309 11.0863 49.2207 7.77616C45.9106 4.46604 40.316 4.46604 37.0059 7.77616C36.1638 8.61935 34.7948 8.61935 33.9527 7.77616C33.1095 6.93298 33.1095 5.56618 33.9527 4.72299C38.919 -0.243276 47.3087 -0.243276 52.275 4.72299C57.2412 9.68926 57.2412 18.079 52.275 23.0453C51.8528 23.4663 51.3001 23.6768 50.7473 23.6768Z" fill="#BB6CFB"/>
</svg>
