<svg width="22" height="22" viewBox="0 0 22 22" fill="none" xmlns="http://www.w3.org/2000/svg">
<path d="M19.9747 8.28438H19.5076C19.3559 7.80957 19.1645 7.34834 18.9351 6.90521L19.2659 6.57443C20.0679 5.77328 20.0464 4.48937 19.2662 3.70992L18.2903 2.7341C17.5113 1.95409 16.2272 1.93149 15.4258 2.7338L15.0948 3.06483C14.6516 2.83555 14.1904 2.64408 13.7156 2.49236V2.02525C13.7156 0.908531 12.8071 0 11.6903 0H10.3096C9.19289 0 8.28436 0.908531 8.28436 2.02525V2.49236C7.8096 2.64404 7.34833 2.83551 6.90519 3.06483L6.57446 2.7341C5.77469 1.93338 4.49057 1.95216 3.71 2.73384L2.73405 3.70971C1.95409 4.48882 1.93153 5.77281 2.7338 6.57422L3.06483 6.90525C2.8355 7.34839 2.64408 7.80957 2.49235 8.28442H2.02529C0.908572 8.28438 0 9.19291 0 10.3096V11.6904C0 12.8071 0.908572 13.7156 2.02529 13.7156H2.49235C2.64408 14.1904 2.8355 14.6517 3.06483 15.0948L2.73405 15.4256C1.93204 16.2267 1.95353 17.5106 2.7338 18.2901L3.70966 19.2659C4.48864 20.0459 5.7728 20.0685 6.57416 19.2662L6.90519 18.9352C7.34833 19.1644 7.8096 19.3559 8.28436 19.5076V19.9748C8.28436 21.0915 9.19293 22 10.3096 22H11.6904C12.8071 22 13.7156 21.0915 13.7156 19.9748V19.5076C14.1904 19.356 14.6517 19.1645 15.0948 18.9352L15.4255 19.2659C16.2253 20.0666 17.5094 20.0478 18.29 19.2662L19.2659 18.2903C20.0459 17.5111 20.0685 16.2271 19.2662 15.4257L18.9352 15.0947C19.1645 14.6516 19.3559 14.1904 19.5076 13.7155H19.9747C21.0914 13.7155 22 12.807 22 11.6903V10.3095C22 9.19291 21.0914 8.28438 19.9747 8.28438ZM11 15.7867C8.36054 15.7867 6.21327 13.6394 6.21327 11C6.21327 8.3606 8.36054 6.21328 11 6.21328C13.6394 6.21328 15.7867 8.3606 15.7867 11C15.7867 13.6394 13.6394 15.7867 11 15.7867Z" fill="white"/>
</svg>
