<svg width="18" height="18" viewBox="0 0 18 18" fill="none" xmlns="http://www.w3.org/2000/svg">
<path d="M17.9531 6.51849C17.8353 6.15401 17.512 5.89514 17.1295 5.86067L11.9342 5.38893L9.87984 0.580505C9.72837 0.22811 9.38339 0 9.00009 0C8.6168 0 8.27182 0.228109 8.12034 0.581329L6.06598 5.38893L0.869863 5.86067C0.488078 5.89596 0.165621 6.15401 0.0471028 6.51849C-0.0714153 6.88297 0.0380389 7.28275 0.326849 7.53475L4.25388 10.9788L3.09589 16.0797C3.01115 16.4548 3.15673 16.8425 3.46792 17.0674C3.63519 17.1883 3.83089 17.2498 4.02824 17.2498C4.19839 17.2498 4.36718 17.2039 4.51865 17.1133L9.00009 14.4349L13.4799 17.1133C13.8077 17.3105 14.2209 17.2925 14.5314 17.0674C14.8428 16.8418 14.9882 16.454 14.9035 16.0797L13.7455 10.9788L17.6725 7.53544C17.9613 7.28275 18.0716 6.88366 17.9531 6.51849Z" fill="#FFC107"/>
</svg>
