<svg width="30" height="29" viewBox="0 0 30 29" fill="none" xmlns="http://www.w3.org/2000/svg">
<path d="M24.2604 8.06521L19.3075 7.3455L17.0925 2.85745C16.237 1.12384 13.7631 1.12437 12.9079 2.8574L10.6928 7.34544L5.73996 8.06521C3.8267 8.34318 3.06299 10.696 4.44685 12.0451L8.0308 15.5385L7.18476 20.4713C6.85799 22.3768 8.85949 23.8301 10.5703 22.931L15.0002 20.6019L19.4303 22.931C21.1386 23.8291 23.1425 22.3765 22.8158 20.4713L21.9697 15.5385L25.5537 12.045C26.9378 10.6955 26.1728 8.34312 24.2604 8.06521ZM24.1575 10.6129L20.1971 14.4733C19.9614 14.7031 19.8539 15.0341 19.9095 15.3584L20.8444 20.8095C20.8914 21.0832 20.6065 21.2899 20.3608 21.1609L15.4655 18.5872C15.1742 18.4341 14.8261 18.4341 14.5348 18.5872L9.63949 21.1609C9.39363 21.2901 9.10892 21.0832 9.15586 20.8095L10.0908 15.3584C10.1464 15.0341 10.0389 14.7031 9.8032 14.4733L5.84279 10.6129C5.64387 10.419 5.75267 10.0843 6.02754 10.0443L11.5007 9.24903C11.8263 9.20169 12.1079 8.9972 12.2536 8.70206L14.7013 3.74251C14.8242 3.49361 15.1761 3.49343 15.2991 3.74257L17.7468 8.70206C17.8924 8.9972 18.174 9.20175 18.4997 9.24903L23.9728 10.0443C24.2476 10.0843 24.3564 10.4191 24.1575 10.6129Z" fill="black"/>
<path d="M7.89561 2.05831L6.69965 0.41224C6.37493 -0.0344789 5.74961 -0.13362 5.30289 0.191107C4.85612 0.515716 4.75703 1.14109 5.0817 1.58786L6.27766 3.23388C6.6025 3.68083 7.22782 3.77956 7.67442 3.45501C8.12119 3.13046 8.22028 2.50509 7.89561 2.05831Z" fill="black"/>
<path d="M3.92564 16.8096C3.75508 16.2844 3.19094 15.9967 2.66559 16.1676L0.691211 16.8091C0.165976 16.9798 -0.121426 17.5439 0.0491991 18.0692C0.220117 18.5953 0.785195 18.8817 1.30926 18.7112L3.28363 18.0696C3.80893 17.899 4.09633 17.3348 3.92564 16.8096Z" fill="black"/>
<path d="M24.6979 0.191134C24.2511 -0.133475 23.6258 -0.0345105 23.3011 0.412267L22.1051 2.05828C21.7805 2.50506 21.8796 3.13049 22.3263 3.45504C22.7733 3.77977 23.3986 3.68051 23.7231 3.23391L24.919 1.58789C25.2437 1.14111 25.1446 0.515685 24.6979 0.191134Z" fill="black"/>
<path d="M29.3091 16.8091L27.3347 16.1676C26.8094 15.9966 26.2453 16.2843 26.0746 16.8096C25.9039 17.3348 26.1913 17.899 26.7166 18.0696L28.691 18.7112C29.2151 18.8816 29.7801 18.5952 29.9511 18.0692C30.1217 17.5439 29.8343 16.9798 29.3091 16.8091Z" fill="black"/>
<path d="M15 24.5614C14.4477 24.5614 14 25.0091 14 25.5614V27.5909C14 28.1432 14.4477 28.5909 15 28.5909C15.5522 28.5909 15.9999 28.1432 15.9999 27.5909V25.5614C16 25.0091 15.5523 24.5614 15 24.5614Z" fill="black"/>
</svg>
