<svg width="266" height="37" viewBox="0 0 266 37" fill="none" xmlns="http://www.w3.org/2000/svg">
<path d="M11.712 36V6.576H0.192V2.4H27.984V6.576H16.464V36H11.712ZM46.1239 10.32C52.3159 10.32 56.6839 13.872 56.6839 21.36V36H52.0759V21.888C52.0759 16.896 49.5799 14.448 45.2119 14.448C40.3159 14.448 37.1479 17.376 37.1479 22.896V36H32.5399V0.383998H37.1479V14.16C39.0679 11.712 42.2359 10.32 46.1239 10.32ZM74.4758 10.32C81.4358 10.32 85.3718 13.68 85.3718 20.64V36H81.0038V32.64C79.4678 34.944 76.6358 36.288 72.6518 36.288C66.8918 36.288 63.2438 33.216 63.2438 28.8C63.2438 24.72 65.8838 21.36 73.4678 21.36H80.7638V20.448C80.7638 16.56 78.5078 14.304 73.9478 14.304C70.9238 14.304 67.8518 15.36 65.8838 17.04L63.9638 13.584C66.6038 11.472 70.3958 10.32 74.4758 10.32ZM73.4198 32.736C76.8758 32.736 79.6118 31.152 80.7638 28.224V24.672H73.6598C69.0998 24.672 67.8038 26.448 67.8038 28.608C67.8038 31.152 69.9158 32.736 73.4198 32.736ZM107.483 10.32C113.675 10.32 118.043 13.872 118.043 21.36V36H113.435V21.888C113.435 16.896 110.939 14.448 106.571 14.448C101.675 14.448 98.5073 17.376 98.5073 22.896V36H93.8993V10.56H98.3153V14.4C100.187 11.808 103.451 10.32 107.483 10.32ZM146.011 36L136.459 24.144L131.179 29.04V36H126.571V0.383998H131.179V23.232L145.051 10.56H150.619L139.915 21.072L151.675 36H146.011ZM195.92 2.4L182.576 24.384V36H177.824V24.288L164.48 2.4H169.616L180.368 20.112L191.168 2.4H195.92ZM208.155 36.288C200.523 36.288 194.907 30.864 194.907 23.28C194.907 15.696 200.523 10.32 208.155 10.32C215.787 10.32 221.355 15.696 221.355 23.28C221.355 30.864 215.787 36.288 208.155 36.288ZM208.155 32.256C213.051 32.256 216.699 28.704 216.699 23.28C216.699 17.856 213.051 14.352 208.155 14.352C203.259 14.352 199.563 17.856 199.563 23.28C199.563 28.704 203.259 32.256 208.155 32.256ZM246.831 10.56H251.439V36H247.071V32.16C245.199 34.8 242.031 36.288 238.431 36.288C231.855 36.288 227.487 32.688 227.487 25.2V10.56H232.095V24.672C232.095 29.664 234.591 32.16 238.959 32.16C243.759 32.16 246.831 29.184 246.831 23.712V10.56ZM260.452 25.392L259.588 2.4H265.012L264.1 25.392H260.452ZM262.324 36.288C260.5 36.288 259.156 34.896 259.156 33.216C259.156 31.488 260.5 30.144 262.324 30.144C264.1 30.144 265.396 31.488 265.396 33.216C265.396 34.896 264.1 36.288 262.324 36.288Z" fill="#BB6CFB"/>
</svg>
