<svg width="57" height="57" viewBox="0 0 57 57" fill="none" xmlns="http://www.w3.org/2000/svg">
<path d="M28.4353 56.8707C20.8938 56.8707 13.6611 53.8748 8.3285 48.5422C2.99585 43.2095 0 35.9769 0 28.4354C0 20.8939 2.99585 13.6613 8.3285 8.32865C13.6611 2.996 20.8938 0.000152757 28.4353 0.000152645C32.8666 -0.0145168 37.2375 1.02833 41.1848 3.04206C41.4176 3.16017 41.6248 3.32296 41.7946 3.52113C41.9644 3.71931 42.0935 3.949 42.1746 4.19708C42.2557 4.44516 42.287 4.70677 42.267 4.96699C42.2469 5.2272 42.1758 5.48092 42.0577 5.71366C41.9396 5.94639 41.7768 6.15358 41.5787 6.32341C41.3805 6.49323 41.1508 6.62235 40.9027 6.70341C40.6546 6.78447 40.393 6.81587 40.1328 6.79581C39.8726 6.77576 39.6189 6.70466 39.3861 6.58655C36.0001 4.84139 32.2446 3.93427 28.4353 3.94141C23.5972 3.94142 18.8677 5.37575 14.8446 8.06311C10.8215 10.7505 7.6854 14.5702 5.83273 19.0395C3.98007 23.5089 3.49399 28.4271 4.43593 33.1726C5.37788 37.9181 7.70556 42.2779 11.1248 45.7008C14.544 49.1237 18.9012 51.4561 23.6457 52.4032C28.3902 53.3502 33.309 52.8695 37.7803 51.0216C42.2516 49.1738 46.0747 46.0418 48.7664 42.0216C51.4581 38.0015 52.8976 33.2735 52.9028 28.4354C52.9166 28.2152 52.9166 27.9943 52.9028 27.7741C52.8537 27.248 53.0156 26.7239 53.3529 26.3171C53.6903 25.9103 54.1754 25.6542 54.7015 25.6051C55.2277 25.556 55.7518 25.7179 56.1585 26.0552C56.5653 26.3926 56.8214 26.8777 56.8705 27.4038V28.4354C56.8635 35.9748 53.8654 43.2033 48.5343 48.5345C43.2032 53.8656 35.9746 56.8637 28.4353 56.8707Z" fill="#BB6CFB"/>
<path d="M27.9583 37.4554C27.7011 37.4592 27.4461 37.4094 27.2092 37.3092C26.9724 37.2091 26.7591 37.0606 26.5828 36.8734L13.8067 24.3355C13.4352 23.9635 13.2266 23.4593 13.2266 22.9336C13.2266 22.4078 13.4352 21.9036 13.8067 21.5316C14.1865 21.1648 14.6939 20.9597 15.2219 20.9597C15.7499 20.9597 16.2573 21.1648 16.637 21.5316L27.9847 32.7206L53.5103 7.61819C53.8901 7.25132 54.3974 7.04626 54.9255 7.04626C55.4535 7.04626 55.9609 7.25132 56.3406 7.61819C56.7121 7.99016 56.9208 8.49439 56.9208 9.02012C56.9208 9.54584 56.7121 10.0501 56.3406 10.422L29.4131 36.8734C29.2237 37.0654 28.9968 37.2162 28.7464 37.3163C28.4961 37.4165 28.2278 37.4638 27.9583 37.4554Z" fill="#BB6CFB"/>
</svg>
